<svg width="19" height="19" viewBox="0 0 19 19" fill="none" xmlns="http://www.w3.org/2000/svg">
<path d="M16.2213 16.2213L14.9625 17.48L14.1194 16.6369L15.3781 15.3781L13.0744 13.0744L11.8156 14.3331L10.9725 13.49L12.2312 12.2312L9.9275 9.9275L8.66875 11.1862L7.82563 10.3431L9.08437 9.08437L6.76875 6.76875L5.51 8.0275L4.66687 7.18438L5.92562 5.92562L3.62188 3.62188L2.36312 4.88062L1.52 4.0375L2.77875 2.77875L0 0V16.625C0 17.9312 1.06875 19 2.375 19H19L16.2213 16.2213ZM3.5625 15.4375V8.5975L10.4025 15.4375H3.5625Z" fill="white"/>
</svg>
