<svg width="64" height="64" viewBox="0 0 64 64" fill="none" xmlns="http://www.w3.org/2000/svg">
<circle cx="32" cy="32" r="32" fill="#C94B23"/>
<path d="M33.66 44.9502V41.3602H29.7V44.9202L28.79 44.7102C22.54 43.3102 18 37.6302 18 31.2102C18 24.7902 22.54 19.1202 28.79 17.7102L29.7 17.5002V21.5402H33.66V17.4702L34.56 17.6502C40.99 18.9402 45.66 24.6402 45.66 31.2102C45.66 37.7802 40.99 43.4802 34.56 44.7702L33.66 44.9502V44.9502ZM28.2 39.8602H35.16V43.0902C40.42 41.6202 44.15 36.7602 44.15 31.2202C44.15 25.6802 40.42 20.8202 35.16 19.3502V23.0602H28.2V19.4402C23.1 21.0102 19.49 25.8302 19.49 31.2302C19.49 36.6302 23.1 41.4502 28.2 43.0202V39.8702V39.8602Z" fill="white"/>
<path d="M25.3502 34.66C23.4502 34.66 21.9102 33.12 21.9102 31.22C21.9102 29.32 23.4502 27.78 25.3502 27.78C27.2502 27.78 28.7902 29.32 28.7902 31.22C28.7902 33.12 27.2502 34.66 25.3502 34.66ZM25.3502 29.27C24.2802 29.27 23.4102 30.14 23.4102 31.21C23.4102 32.28 24.2802 33.15 25.3502 33.15C26.4202 33.15 27.2902 32.28 27.2902 31.21C27.2902 30.14 26.4202 29.27 25.3502 29.27Z" fill="white"/>
<path d="M38.3502 34.66C36.4502 34.66 34.9102 33.12 34.9102 31.22C34.9102 29.32 36.4502 27.78 38.3502 27.78C40.2502 27.78 41.7902 29.32 41.7902 31.22C41.7902 33.12 40.2502 34.66 38.3502 34.66ZM38.3502 29.27C37.2802 29.27 36.4102 30.14 36.4102 31.21C36.4102 32.28 37.2802 33.15 38.3502 33.15C39.4202 33.15 40.2902 32.28 40.2902 31.21C40.2902 30.14 39.4202 29.27 38.3502 29.27Z" fill="white"/>
<path d="M45.71 49.79H17.75C15.13 49.79 13 47.66 13 45.04V16.75C13 14.13 15.13 12 17.75 12H45.71C48.33 12 50.46 14.13 50.46 16.75V45.04C50.46 47.66 48.33 49.79 45.71 49.79ZM17.75 13.5C15.96 13.5 14.5 14.96 14.5 16.75V45.04C14.5 46.83 15.96 48.29 17.75 48.29H45.71C47.5 48.29 48.96 46.83 48.96 45.04V16.75C48.96 14.96 47.5 13.5 45.71 13.5H17.75Z" fill="white"/>
</svg>
