<svg width="64" height="64" viewBox="0 0 64 64" fill="none" xmlns="http://www.w3.org/2000/svg">
<circle cx="32" cy="32" r="32" fill="#C94B23"/>
<path d="M25.3202 44.8501C25.0802 44.8501 24.8502 44.7401 24.7002 44.5201L16.9201 33.1401C16.6901 32.8001 16.7702 32.3301 17.1202 32.1001C17.4602 31.8601 17.9301 31.95 18.1601 32.3L25.9402 43.68C26.1702 44.02 26.0901 44.4901 25.7401 44.7201C25.6101 44.8101 25.4602 44.8501 25.3202 44.8501Z" fill="white"/>
<path d="M48.53 50.84H23.51C23.19 50.84 22.9 50.63 22.8 50.33C22.7 50.03 22.8 49.69 23.06 49.49L26.89 46.6C28.89 45.1 29.8 44.42 29.8 42.1V41.34C29.8 40.93 30.14 40.59 30.55 40.59H48.54C48.95 40.59 49.29 40.93 49.29 41.34V50.08C49.29 50.49 48.95 50.83 48.54 50.83L48.53 50.84ZM25.75 49.34H47.78V42.1H31.29C31.29 45.17 29.82 46.28 27.78 47.81L25.74 49.35L25.75 49.34Z" fill="white"/>
<path d="M45.07 42.1H30.54C30.13 42.1 29.79 41.76 29.79 41.35V37.5C29.79 37.09 30.13 36.75 30.54 36.75H45.07C45.48 36.75 45.82 37.09 45.82 37.5V41.35C45.82 41.76 45.48 42.1 45.07 42.1ZM31.29 40.6H44.32V38.25H31.29V40.6Z" fill="white"/>
<path d="M27.53 30.6C27.48 30.6 27.43 30.6 27.38 30.58C26.97 30.5 26.71 30.1 26.8 29.69L27.29 27.3L22.01 22.74C21.7 22.47 21.66 22 21.93 21.68C22.2 21.37 22.68 21.33 22.99 21.6L28.6 26.45C28.81 26.63 28.9 26.9 28.84 27.17L28.26 29.99C28.19 30.34 27.87 30.59 27.53 30.59V30.6Z" fill="white"/>
<path d="M43.01 38.25C42.66 38.25 42.35 38.01 42.28 37.65L40.12 27.17C40.07 26.9 40.16 26.63 40.36 26.45L45.71 21.83V12.5H42.43V16.54C42.43 16.95 42.09 17.29 41.68 17.29H37C36.59 17.29 36.25 16.95 36.25 16.54V12.5H33.04V16.54C33.04 16.95 32.7 17.29 32.29 17.29H27.61C27.2 17.29 26.86 16.95 26.86 16.54V12.5H23.25V21.42H34.48C34.89 21.42 35.23 21.76 35.23 22.17C35.23 22.58 34.89 22.92 34.48 22.92H22.5C22.09 22.92 21.75 22.58 21.75 22.17V11.75C21.75 11.34 22.09 11 22.5 11H27.61C28.02 11 28.36 11.34 28.36 11.75V15.79H31.54V11.75C31.54 11.34 31.88 11 32.29 11H37C37.41 11 37.75 11.34 37.75 11.75V15.79H40.93V11.75C40.93 11.34 41.27 11 41.68 11H46.46C46.87 11 47.21 11.34 47.21 11.75V22.17C47.21 22.39 47.12 22.59 46.95 22.74L41.67 27.3L43.74 37.35C43.82 37.76 43.56 38.15 43.16 38.24C43.11 38.25 43.06 38.26 43.01 38.26V38.25Z" fill="white"/>
<path d="M20.65 53C20.49 53 20.33 52.95 20.2 52.85L13.51 47.81C11.47 46.28 10 45.18 10 42.11V30.48C10 30.12 10.26 29.81 10.62 29.74L13.31 29.25C14.85 28.97 16.3 28.43 17.64 27.64L20.28 26.09C20.5 25.96 20.78 25.95 21.01 26.08L24.35 27.88C25.4 28.44 26.53 28.86 27.7 29.12L27.81 29.15L27.97 29.19L30.71 29.75C31.06 29.82 31.31 30.13 31.31 30.48V42.11C31.31 45.17 29.84 46.28 27.8 47.81L21.12 52.85C20.99 52.95 20.83 53 20.67 53H20.65ZM11.5 31.11V42.12C11.5 44.43 12.41 45.12 14.41 46.62L20.65 51.32L26.88 46.62C28.88 45.12 29.79 44.44 29.79 42.12V31.1L27.45 30.61L27.34 30.59C26.06 30.3 24.8 29.84 23.63 29.21L20.66 27.61L18.39 28.94C16.91 29.82 15.28 30.42 13.57 30.73L11.49 31.11H11.5Z" fill="white"/>
<path d="M20.9099 44.65C20.6699 44.65 20.4399 44.54 20.2899 44.32L15.87 37.8501C15.64 37.5101 15.72 37.04 16.07 36.81C16.41 36.57 16.88 36.66 17.11 37.01L21.5299 43.4801C21.7599 43.8201 21.6799 44.29 21.3299 44.52C21.1999 44.61 21.0499 44.65 20.9099 44.65Z" fill="white"/>
</svg>
