<svg width="55" height="55" viewBox="0 0 55 55" fill="none" xmlns="http://www.w3.org/2000/svg">
<path d="M27.14 34.8503C22.92 34.8503 19.48 31.4203 19.48 27.1903C19.48 25.9503 19.78 24.7103 20.36 23.6203C20.62 23.1303 21.22 22.9403 21.71 23.2003C22.2 23.4603 22.39 24.0603 22.13 24.5503C21.7 25.3703 21.48 26.2503 21.48 27.1803C21.48 30.3003 24.02 32.8403 27.14 32.8403C30.26 32.8403 32.8 30.3003 32.8 27.1803C32.8 24.0603 30.26 21.5203 27.14 21.5203C26.47 21.5203 25.81 21.6403 25.18 21.8703C24.66 22.0603 24.09 21.8003 23.9 21.2803C23.71 20.7603 23.97 20.1903 24.49 20.0003C25.34 19.6903 26.23 19.5303 27.14 19.5303C31.36 19.5303 34.8 22.9603 34.8 27.1903C34.8 31.4203 31.37 34.8503 27.14 34.8503V34.8503Z" fill="#1A1A1A"/>
<path d="M27.1401 41.0498C19.5001 41.0498 13.29 34.8298 13.29 27.1998C13.29 24.0498 14.3201 21.0898 16.2601 18.6198C16.6001 18.1898 17.23 18.1098 17.66 18.4498C18.09 18.7898 18.1701 19.4198 17.8301 19.8498C16.1701 21.9598 15.29 24.4998 15.29 27.1898C15.29 33.7298 20.6101 39.0398 27.1401 39.0398C33.6701 39.0398 38.9901 33.7198 38.9901 27.1898C38.9901 20.6598 33.6701 15.3398 27.1401 15.3398C25.1701 15.3398 23.2101 15.8298 21.4901 16.7698C21.0001 17.0298 20.4001 16.8498 20.1301 16.3698C19.8701 15.8798 20.05 15.2798 20.53 15.0098C22.55 13.9198 24.8301 13.3398 27.1301 13.3398C34.7701 13.3398 40.98 19.5598 40.98 27.1898C40.98 34.8198 34.7601 41.0398 27.1301 41.0398L27.1401 41.0498Z" fill="#1A1A1A"/>
<path d="M31.59 54.36H22.84L21.63 46.87C20.1 46.44 18.63 45.84 17.24 45.07L11.08 49.53L4.89001 43.34L9.33002 37.2C8.55002 35.81 7.93 34.34 7.5 32.8L0 31.59V22.84L7.47998 21.64C7.96998 19.9 8.69 18.23 9.63 16.67C9.92 16.2 10.53 16.04 11 16.33C11.47 16.61 11.63 17.23 11.34 17.7C10.39 19.27 9.69 20.98 9.25 22.76L9.08997 23.4L1.98999 24.54V29.89L9.09998 31.03L9.26001 31.67C9.71001 33.46 10.42 35.16 11.37 36.73L11.71 37.3L7.5 43.12L11.28 46.9L17.12 42.68L17.69 43.02C19.27 43.96 20.97 44.66 22.75 45.1L23.39 45.26L24.53 52.37H29.88L31.03 45.23L31.67 45.07C33.44 44.62 35.13 43.92 36.69 42.97L37.26 42.63L43.12 46.86L46.9 43.08L42.65 37.2L42.99 36.63C43.92 35.07 44.61 33.38 45.05 31.62L45.21 30.98L52.37 29.83V24.48L45.19 23.32L45.03 22.68C44.59 20.92 43.89 19.24 42.95 17.69L42.61 17.12L46.86 11.24L43.08 7.46L37.19 11.72L36.62 11.38C35.06 10.44 33.37 9.75 31.61 9.31L30.97 9.15L29.82 2H24.47L24.12 4.19C24.03 4.74 23.51 5.11 22.97 5.02C22.42 4.93 22.05 4.42 22.14 3.87L22.76 0H31.51L32.72 7.54C34.23 7.97 35.68 8.57 37.06 9.33L43.27 4.84L49.46 11.03L44.98 17.23C45.75 18.6 46.35 20.05 46.78 21.55L54.35 22.77V31.52L46.81 32.73C46.39 34.24 45.79 35.7 45.03 37.07L49.52 43.28L43.33 49.47L37.16 45.01C35.78 45.79 34.32 46.4 32.8 46.83L31.59 54.36V54.36Z" fill="#1A1A1A"/>
<path d="M7.67004 14.3099C7.36004 14.3099 7.05005 14.1699 6.86005 13.8999L4.83008 11.0899L11.0201 4.8999L17.1901 9.3599C18.7601 8.4799 20.4401 7.8199 22.1901 7.3799C22.7201 7.2399 23.27 7.5699 23.4 8.1099C23.53 8.6499 23.21 9.1899 22.67 9.3199C20.9 9.7599 19.2101 10.4599 17.6401 11.4099L17.0701 11.7499L11.22 7.5199L7.44006 11.2999L8.48004 12.7299C8.80004 13.1799 8.70006 13.7999 8.25006 14.1299C8.07006 14.2599 7.87004 14.3199 7.67004 14.3199V14.3099Z" fill="#1A1A1A"/>
</svg>
