<svg width="64" height="64" viewBox="0 0 64 64" fill="none" xmlns="http://www.w3.org/2000/svg">
<circle cx="32" cy="32" r="32" fill="#C94B23"/>
<path d="M13.55 34.1799C12.02 34.1799 10.77 32.9299 10.77 31.3999H12.27C12.27 32.1099 12.84 32.6799 13.55 32.6799C14.26 32.6799 14.83 32.1099 14.83 31.3999C14.83 30.6899 14.26 30.1199 13.55 30.1199V28.6199C15.08 28.6199 16.33 29.8699 16.33 31.3999C16.33 32.9299 15.08 34.1799 13.55 34.1799V34.1799Z" fill="white"/>
<path d="M14.3 23.27H12.8V29.38H14.3V23.27Z" fill="white"/>
<path d="M45.03 52.5499H43.53V22.5199H49.3V16.8499H44.61L44.54 18.5699L43.04 18.5099L43.17 15.3499H50.8V24.0199H45.03V52.5499Z" fill="white"/>
<path d="M44.2701 22.52H39.05V24.02H44.2701V22.52Z" fill="white"/>
<path d="M39.8 52.5498H38.3V24.0198H8L13.2 17.7898H35.72V19.2898H13.9L11.21 22.5198H39.8V52.5498Z" fill="white"/>
<path d="M39.7999 25.63L35.3299 19.29H21.8999L39.0599 9L49.6699 15.46L48.8899 16.74L39.8099 11.21V25.63H39.7999ZM27.3099 17.79H36.0999L38.2999 20.9V11.2L27.3099 17.79Z" fill="white"/>
<path d="M39.5799 52.7298L38.5199 51.6698L43.2899 46.8998L37.8899 41.4998L43.3299 36.0698L38.0099 30.7498L43.0999 25.6599L41.3299 23.8998L42.3999 22.8398L45.2199 25.6599L40.1299 30.7498L45.4499 36.0698L40.0199 41.4998L45.4099 46.8998L39.5799 52.7298Z" fill="white"/>
<path d="M18.97 52.5499H17.47V36.1199H35.34V37.6199H18.97V52.5499Z" fill="white"/>
<path d="M22.3 31.4099H20.8V36.8699H22.3V31.4099Z" fill="white"/>
<path d="M27.8 31.4099H26.3V36.8699H27.8V31.4099Z" fill="white"/>
<path d="M33.3 31.4099H31.8V36.8699H33.3V31.4099Z" fill="white"/>
<path d="M35.34 45.6599H20.8V39.6599H35.34V41.1599H22.3V44.1599H35.34V45.6599Z" fill="white"/>
<path d="M35.34 52.95H20.8V46.95H35.34V48.45H22.3V51.45H35.34V52.95Z" fill="white"/>
<path d="M26.32 44.9199C26.23 40.1899 26.26 40.1599 26.53 39.8799L27.07 39.6499V40.3999L27.8 40.5399C27.77 40.8299 27.78 42.9799 27.82 44.8899L26.32 44.9199Z" fill="white"/>
<path d="M27.8201 47.7H26.3201V52.2H27.8201V47.7Z" fill="white"/>
<path d="M31.82 44.9199C31.73 40.1899 31.76 40.1599 32.03 39.8799L32.57 39.6499V40.3999L33.3 40.5399C33.27 40.8299 33.28 42.9799 33.32 44.8899L31.82 44.9199Z" fill="white"/>
<path d="M33.3201 47.7H31.8201V52.2H33.3201V47.7Z" fill="white"/>
</svg>
