<svg width="64" height="64" viewBox="0 0 64 64" fill="none" xmlns="http://www.w3.org/2000/svg">
<circle cx="32" cy="32" r="32" fill="#C94B23"/>
<path d="M32.3995 44.34C32.2695 44.34 32.1495 44.31 32.0395 44.24C31.8295 44.11 31.7095 43.89 31.7095 43.64V31.23C31.7095 30.97 31.8595 30.73 32.0895 30.61L42.7995 25.14C43.0195 25.03 43.2695 25.04 43.4795 25.17C43.6895 25.3 43.8095 25.52 43.8095 25.77V38.18C43.8095 38.44 43.6595 38.68 43.4295 38.8L32.7195 44.27C32.6195 44.32 32.5095 44.35 32.3995 44.35V44.34ZM33.0995 31.65V42.5L42.4095 37.74V26.89L33.0995 31.65V31.65Z" fill="white"/>
<path d="M32.3995 44.34C32.2895 44.34 32.1795 44.31 32.0795 44.26L21.3695 38.79C21.1395 38.67 20.9895 38.43 20.9895 38.17V25.76C20.9895 25.52 21.1195 25.29 21.3195 25.16C21.5295 25.03 21.7895 25.02 21.9995 25.13L32.7095 30.6C32.9395 30.72 33.0895 30.96 33.0895 31.22V43.63C33.0895 43.87 32.9595 44.1 32.7595 44.23C32.6495 44.3 32.5195 44.33 32.3995 44.33V44.34ZM22.3895 37.74L31.6995 42.5V31.65L22.3895 26.89V37.74Z" fill="white"/>
<path d="M32.3995 31.92C32.2895 31.92 32.1795 31.89 32.0795 31.84L21.3695 26.37C21.1395 26.25 20.9995 26.03 20.9895 25.77C20.9895 25.52 21.1095 25.28 21.3295 25.15L32.0395 18.68C32.2595 18.55 32.5395 18.55 32.7595 18.68L43.4695 25.15C43.6895 25.28 43.8195 25.52 43.8095 25.77C43.8095 26.02 43.6595 26.25 43.4295 26.37L32.7195 31.84C32.6195 31.89 32.5095 31.92 32.3995 31.92ZM23.1295 25.7L32.3995 30.44L41.6695 25.7L32.3995 20.09L23.1295 25.7Z" fill="white"/>
<path d="M10.6995 45.31C10.4595 45.31 10.2295 45.19 10.0995 44.96C9.9095 44.63 10.0195 44.2 10.3495 44L21.3395 37.56C21.6695 37.37 22.0995 37.48 22.2995 37.81C22.4895 38.14 22.3795 38.57 22.0495 38.77L11.0595 45.21C10.9495 45.27 10.8295 45.31 10.7095 45.31H10.6995Z" fill="white"/>
<path d="M53.1895 44.29C53.0795 44.29 52.9695 44.26 52.8595 44.21L42.7696 38.78C42.4296 38.6 42.2995 38.17 42.4895 37.83C42.6695 37.49 43.0995 37.36 43.4395 37.55L53.5296 42.98C53.8696 43.16 53.9995 43.59 53.8095 43.93C53.6795 44.16 53.4395 44.3 53.1895 44.3V44.29Z" fill="white"/>
<path d="M32.3995 19.98C32.0095 19.98 31.6995 19.67 31.6995 19.28V8.69998C31.6995 8.30998 32.0095 8 32.3995 8C32.7895 8 33.0995 8.30998 33.0995 8.69998V19.28C33.0995 19.67 32.7895 19.98 32.3995 19.98Z" fill="white"/>
<path d="M34.6095 11.62C34.4295 11.62 34.2495 11.55 34.1195 11.42L32.3896 9.68999L30.6595 11.42C30.3895 11.69 29.9495 11.69 29.6695 11.42C29.3895 11.15 29.3995 10.71 29.6695 10.43L31.8896 8.20998C32.1596 7.93998 32.5995 7.93998 32.8795 8.20998L35.0995 10.43C35.3695 10.7 35.3695 11.14 35.0995 11.42C34.9595 11.56 34.7895 11.62 34.6095 11.62Z" fill="white"/>
<path d="M13.7495 46.05C13.6895 46.05 13.6395 46.05 13.5795 46.03L10.5295 45.27C10.1595 45.18 9.92952 44.8 10.0195 44.42L10.7795 41.37C10.8695 41 11.2495 40.77 11.6295 40.86C11.9995 40.95 12.2295 41.33 12.1395 41.71L11.5495 44.08L13.9195 44.67C14.2895 44.76 14.5195 45.14 14.4295 45.52C14.3495 45.84 14.0695 46.05 13.7495 46.05V46.05Z" fill="white"/>
<path d="M50.1495 45.08C49.8395 45.08 49.5495 44.87 49.4695 44.55C49.3795 44.18 49.6095 43.8 49.9795 43.71L52.3495 43.13L51.7695 40.76C51.6795 40.39 51.9095 40.01 52.2795 39.92C52.6495 39.83 53.0295 40.06 53.1195 40.43L53.8695 43.48C53.9095 43.66 53.8795 43.85 53.7895 44.01C53.6895 44.17 53.5395 44.28 53.3595 44.33L50.3095 45.08C50.2495 45.09 50.1995 45.1 50.1395 45.1L50.1495 45.08Z" fill="white"/>
<path d="M32.4195 51.07C29.0895 51.07 25.8395 50.21 22.9895 48.57C22.6595 48.38 22.5395 47.95 22.7295 47.62C22.9195 47.29 23.3495 47.17 23.6795 47.36C26.3195 48.87 29.3295 49.67 32.3895 49.67C35.6895 49.54 38.6795 48.75 41.2295 47.32C41.5695 47.13 41.9895 47.25 42.1795 47.59C42.3695 47.93 42.2495 48.35 41.9095 48.54C39.1595 50.08 35.9595 50.92 32.4095 51.07H32.4195ZM14.1795 32.89C13.7895 32.89 13.4795 32.62 13.4795 32.23H14.1795L13.4795 32.18C13.4795 25.43 17.0995 19.15 22.9295 15.78C23.2595 15.58 23.6895 15.7 23.8795 16.03C24.0695 16.36 23.9595 16.79 23.6295 16.98C18.2295 20.11 14.8795 25.92 14.8795 32.15C14.8795 32.54 14.5695 32.89 14.1795 32.89ZM50.5195 32.81C50.1395 32.81 49.8195 32.5 49.8195 32.11C49.8095 25.59 46.5695 19.92 41.1695 16.94C40.8295 16.75 40.7095 16.33 40.8995 15.99C41.0895 15.65 41.5095 15.53 41.8495 15.72C47.6995 18.95 51.1995 25.08 51.2195 32.11C51.2195 32.5 50.9095 32.81 50.5195 32.81Z" fill="white"/>
</svg>
