<svg width="64" height="64" viewBox="0 0 64 64" fill="none" xmlns="http://www.w3.org/2000/svg">
<circle cx="32" cy="32" r="32" fill="#C94B23"/>
<path d="M23.69 51.8102C23.49 51.8102 23.2901 51.7302 23.1401 51.5802C22.8301 51.2702 22.8201 50.7702 23.1301 50.4602C25.2601 48.2702 26.3201 46.1202 26.2901 44.0702C26.2501 41.7802 24.8901 40.0602 23.4601 38.2402C21.8901 36.2402 20.2601 34.1802 20.3601 31.2602C20.4101 29.8302 21.1501 28.4102 21.8101 27.1602C22.2801 26.2602 22.7701 25.3202 22.7701 24.7402C22.7701 24.3002 23.1301 23.9502 23.5601 23.9502C23.9901 23.9502 24.3501 24.3102 24.3501 24.7402C24.3501 25.7102 23.7901 26.7702 23.2101 27.8902C22.6101 29.0502 21.98 30.2402 21.94 31.3102C21.86 33.6402 23.2401 35.3902 24.7001 37.2502C26.2401 39.2002 27.8201 41.2102 27.8701 44.0302C27.9201 46.5202 26.7001 49.0602 24.2601 51.5602C24.1001 51.7202 23.9 51.8002 23.69 51.8002V51.8102Z" fill="white"/>
<path d="M27.6702 25.4401L23.5402 20.0901L19.4202 25.4401H27.6702Z" fill="white"/>
<path d="M32.76 51.8102C32.56 51.8102 32.36 51.7302 32.21 51.5802C31.9 51.2702 31.89 50.7702 32.2 50.4602C34.33 48.2702 35.3901 46.1202 35.3601 44.0702C35.3201 41.7802 33.9601 40.0602 32.5301 38.2402C30.9501 36.2402 29.3201 34.1802 29.4301 31.2602C29.4801 29.8302 30.22 28.4102 30.88 27.1602C31.35 26.2602 31.8401 25.3202 31.8401 24.7402C31.8401 24.3002 32.2 23.9502 32.63 23.9502C33.06 23.9502 33.4201 24.3102 33.4201 24.7402C33.4201 25.7102 32.8601 26.7702 32.2801 27.8902C31.6801 29.0402 31.05 30.2402 31.02 31.3102C30.94 33.6402 32.3201 35.3902 33.7801 37.2502C35.3201 39.2002 36.9 41.2102 36.95 44.0302C36.99 46.5202 35.7801 49.0602 33.3401 51.5602C33.1801 51.7202 32.98 51.8002 32.77 51.8002L32.76 51.8102Z" fill="white"/>
<path d="M36.74 25.4401L32.61 20.0901L28.49 25.4401H36.74Z" fill="white"/>
<path d="M41.9801 51.8102C41.7801 51.8102 41.5801 51.7302 41.4301 51.5802C41.1201 51.2702 41.1101 50.7702 41.4201 50.4602C43.5501 48.2702 44.61 46.1202 44.58 44.0702C44.54 41.7802 43.18 40.0602 41.75 38.2402C40.17 36.2402 38.54 34.1802 38.65 31.2602C38.7 29.8302 39.4401 28.4102 40.1001 27.1602C40.5701 26.2602 41.0601 25.3202 41.0601 24.7402C41.0601 24.3002 41.4201 23.9502 41.8501 23.9502C42.2801 23.9502 42.64 24.3102 42.64 24.7402C42.64 25.7102 42.08 26.7702 41.5 27.8902C40.9 29.0402 40.2701 30.2402 40.2401 31.3102C40.1601 33.6402 41.54 35.3902 43 37.2502C44.53 39.2002 46.1201 41.2102 46.1701 44.0302C46.2201 46.5202 45.0001 49.0602 42.5601 51.5602C42.4001 51.7202 42.2001 51.8002 41.9901 51.8002L41.9801 51.8102Z" fill="white"/>
<path d="M45.96 25.4401L41.84 20.0901L37.71 25.4401H45.96Z" fill="white"/>
<path d="M47.32 44.3401H16.09C12.74 44.3401 10.01 41.6101 10.01 38.2601V29.6801C10.01 29.2401 10.37 28.8901 10.8 28.8901C11.23 28.8901 11.59 29.2501 11.59 29.6801V38.2601C11.59 40.7401 13.61 42.7502 16.08 42.7502H47.3101C49.7901 42.7502 51.8 40.7301 51.8 38.2601V29.6801C51.8 29.2401 52.16 28.8901 52.59 28.8901C53.02 28.8901 53.38 29.2501 53.38 29.6801V38.2601C53.38 41.6101 50.65 44.3401 47.3 44.3401H47.32Z" fill="white"/>
<path d="M52.6 27.26C52.16 27.26 51.8101 26.9 51.8101 26.47V21.08C51.8101 18.6 49.79 16.59 47.32 16.59H46.79C46.35 16.59 46 16.23 46 15.8C46 15.37 46.36 15.01 46.79 15.01H47.32C50.67 15.01 53.4 17.74 53.4 21.09V26.48C53.4 26.92 53.04 27.27 52.61 27.27L52.6 27.26ZM10.79 27.26C10.35 27.26 10 26.9 10 26.47V21.08C10 17.73 12.73 15 16.08 15H18.2401C18.6801 15 19.03 15.36 19.03 15.79C19.03 16.22 18.6701 16.58 18.2401 16.58H16.08C13.6 16.58 11.59 18.6 11.59 21.07V26.46C11.59 26.9 11.23 27.25 10.8 27.25L10.79 27.26ZM40.44 16.58H24.58C24.14 16.58 23.79 16.22 23.79 15.79C23.79 15.36 24.15 15 24.58 15H40.44C40.88 15 41.23 15.36 41.23 15.79C41.23 16.22 40.87 16.58 40.44 16.58Z" fill="white"/>
</svg>
