<svg width="52" height="55" viewBox="0 0 52 55" fill="none" xmlns="http://www.w3.org/2000/svg">
<path d="M31.01 15.03C30.48 15.03 30.04 14.61 30.01 14.08L29.44 2H21.71L21.3 14.07C21.28 14.62 20.81 15.07 20.27 15.04C19.72 15.02 19.29 14.56 19.3 14.01L19.74 0.97C19.76 0.43 20.2 0 20.74 0H30.39C30.92 0 31.36 0.42 31.39 0.95L32.01 13.99C32.04 14.54 31.61 15.01 31.06 15.04H31.01V15.03Z" fill="#1A1A1A"/>
<path d="M47.04 23.42C47.04 23.42 47 23.42 46.99 23.42C46.44 23.39 46.01 22.92 46.04 22.37C46.41 15.31 41.53 8.00002 35.73 6.54001V20.57C35.73 21.12 35.28 21.57 34.73 21.57C34.18 21.57 33.73 21.12 33.73 20.57V5.34002C33.73 5.05002 33.85 4.78002 34.06 4.59002C34.27 4.40002 34.56 4.31002 34.84 4.34002C42.2 5.20002 48.49 13.83 48.03 22.46C48 22.99 47.56 23.41 47.03 23.41L47.04 23.42Z" fill="#1A1A1A"/>
<path d="M4.27002 23.42C3.74002 23.42 3.30002 23.01 3.27002 22.47C2.81002 13.84 9.10002 5.20003 16.46 4.35003C16.74 4.32003 17.03 4.41003 17.24 4.60003C17.45 4.79003 17.57 5.06003 17.57 5.35003V20.58C17.57 21.13 17.12 21.58 16.57 21.58C16.02 21.58 15.57 21.13 15.57 20.58V6.54002C9.77002 8.00003 4.89002 15.3 5.26002 22.37C5.29002 22.92 4.87002 23.39 4.31002 23.42C4.29002 23.42 4.27002 23.42 4.26002 23.42H4.27002Z" fill="#1A1A1A"/>
<path d="M25.66 27.99C21.03 27.99 7.73 26.37 7.17 26.31C6.62 26.24 6.23 25.75 6.3 25.2C6.37 24.65 6.87 24.26 7.41 24.33C7.55 24.35 21.16 26 25.66 26C30.16 26 43.77 24.35 43.91 24.33C44.46 24.27 44.96 24.65 45.02 25.2C45.09 25.75 44.7 26.25 44.15 26.31C43.59 26.38 30.28 27.99 25.66 27.99V27.99Z" fill="#1A1A1A"/>
<path d="M25.66 35.85C19.28 35.85 7.39 35.85 0.23 27.1C0.0799995 26.92 0 26.7 0 26.47V23.12C0 22.57 0.45 22.12 1 22.12C1.55 22.12 2 22.57 2 23.12V26.11C8.06 33.25 17.38 33.86 25.66 33.86C33.94 33.86 43.25 33.26 49.32 26.11V23.12C49.32 22.57 49.77 22.12 50.32 22.12C50.87 22.12 51.32 22.57 51.32 23.12V26.47C51.32 26.7 51.24 26.92 51.09 27.1C43.93 35.85 32.04 35.85 25.66 35.85V35.85Z" fill="#1A1A1A"/>
<path d="M25.66 43.08C23.39 43.08 21.27 42.03 20.12 40.33C19.81 39.87 19.93 39.25 20.39 38.94C20.85 38.63 21.47 38.75 21.78 39.21C22.56 40.36 24.05 41.08 25.66 41.08C27.27 41.08 28.76 40.36 29.54 39.21C29.85 38.75 30.47 38.64 30.93 38.95C31.39 39.26 31.5 39.88 31.19 40.34C30.04 42.03 27.91 43.09 25.65 43.09L25.66 43.08Z" fill="#1A1A1A"/>
<path d="M29.42 54.2H22.01L21.02 49.01C19.83 48.72 18.68 48.32 17.57 47.81L12.52 50.88L7.13004 46.34L10.81 42.04C10.27 41.19 9.83004 40.29 9.49004 39.34L3.29004 38.49V32.76C3.29004 32.21 3.74004 31.76 4.29004 31.76C4.84004 31.76 5.29004 32.21 5.29004 32.76V36.74L11.02 37.52L11.21 38.14C11.57 39.35 12.13 40.48 12.88 41.51L13.34 42.15L9.95004 46.11L12.7 48.43L17.46 45.53L17.96 45.78C19.25 46.43 20.63 46.91 22.07 47.2L22.73 47.33L23.66 52.2H27.76L28.69 47.31L29.34 47.17C30.75 46.87 32.13 46.39 33.42 45.73L33.92 45.48L38.69 48.39L41.44 46.07L38.03 42.07L38.48 41.43C39.21 40.41 39.75 39.28 40.11 38.09L40.29 37.47L46.06 36.69V32.71C46.06 32.16 46.51 31.71 47.06 31.71C47.61 31.71 48.06 32.16 48.06 32.71V38.44L41.83 39.29C41.5 40.22 41.08 41.11 40.55 41.95L44.27 46.31L38.89 50.85L33.84 47.77C32.74 48.29 31.6 48.69 30.43 48.98L29.43 54.2H29.42Z" fill="#1A1A1A"/>
</svg>
