<svg width="60" height="54" viewBox="0 0 60 54" fill="none" xmlns="http://www.w3.org/2000/svg">
<path d="M14.3917 18.17C14.0817 18.17 13.7717 18.03 13.5817 17.76L8.72168 11.03L14.9117 4.84L21.1217 9.33C22.4917 8.57 23.9517 7.96 25.4617 7.54L26.6717 0H35.4217L36.0417 3.87C36.1317 4.42 35.7617 4.93 35.2117 5.02C34.6717 5.11 34.1517 4.74 34.0617 4.19L33.7117 2H28.3617L27.2117 9.15L26.5717 9.31C24.8117 9.75 23.1217 10.44 21.5617 11.38L20.9917 11.72L15.1017 7.46L11.3217 11.24L15.1817 16.59C15.5017 17.04 15.4017 17.66 14.9617 17.99C14.7817 18.12 14.5817 18.18 14.3817 18.18L14.3917 18.17Z" fill="#1A1A1A"/>
<path d="M50.5117 14.31C50.3117 14.31 50.1017 14.25 49.9317 14.12C49.4817 13.8 49.3817 13.17 49.7117 12.72L50.7517 11.29L46.9717 7.51002L41.1217 11.74L40.5517 11.4C38.9817 10.46 37.2917 9.75002 35.5217 9.31002C34.9817 9.18002 34.6617 8.63002 34.7917 8.10002C34.9217 7.56002 35.4717 7.24001 36.0017 7.37001C37.7517 7.81001 39.4317 8.47002 41.0017 9.35002L47.1717 4.89001L53.3617 11.08L51.3317 13.89C51.1317 14.16 50.8317 14.3 50.5217 14.3L50.5117 14.31Z" fill="#1A1A1A"/>
<path d="M54.0217 40.09C51.7817 40.09 49.7217 38.6 49.1017 36.33L45.6617 23.67C45.3017 22.36 45.4817 20.98 46.1617 19.8C46.8417 18.62 47.9317 17.77 49.2517 17.42C51.9617 16.68 54.7617 18.29 55.5017 21L58.9417 33.66C59.3017 34.97 59.1217 36.35 58.4417 37.53C57.7617 38.71 56.6717 39.56 55.3517 39.91C54.9117 40.03 54.4617 40.09 54.0217 40.09V40.09ZM50.5817 19.24C50.3117 19.24 50.0417 19.28 49.7717 19.35C48.9717 19.57 48.3117 20.08 47.9017 20.8C47.4917 21.52 47.3817 22.35 47.6017 23.15L51.0417 35.81C51.4917 37.46 53.1917 38.43 54.8417 37.99C56.4917 37.54 57.4617 35.84 57.0217 34.19L53.5817 21.53C53.2117 20.15 51.9617 19.25 50.5917 19.25L50.5817 19.24Z" fill="black"/>
<path d="M5.09177 40.06C4.62177 40.06 4.14176 39.99 3.67176 39.86C0.971756 39.08 -0.578245 36.2499 0.201755 33.5499L3.86176 20.95C4.24176 19.64 5.11176 18.5599 6.30176 17.9099C7.49176 17.2599 8.87177 17.0999 10.1818 17.4799C11.4918 17.8599 12.5718 18.7299 13.2218 19.9199C13.8818 21.1099 14.0318 22.4899 13.6518 23.7999L9.99176 36.4C9.34176 38.63 7.30178 40.07 5.10178 40.07L5.09177 40.06ZM8.75177 19.27C7.41177 19.27 6.17177 20.1499 5.78177 21.4999L2.12177 34.0999C1.64177 35.7399 2.59175 37.46 4.23175 37.93C5.87175 38.41 7.59177 37.46 8.06177 35.82L11.7218 23.2199C12.2018 21.5799 11.2518 19.8599 9.61176 19.3899C9.32176 19.3099 9.03177 19.27 8.75177 19.27V19.27Z" fill="black"/>
<path d="M44.3218 43.9599C43.5518 43.9599 42.8318 43.6299 42.2818 43.0099C40.4918 41.0199 38.7918 39.1599 38.7918 39.1599C38.4218 38.7499 38.4418 38.1199 38.8518 37.7499C39.2618 37.3799 39.8918 37.3999 40.2618 37.8099C40.2618 37.8099 41.9718 39.6799 43.7618 41.6699C44.0318 41.9699 44.2518 41.9699 44.4618 41.9399C45.4518 41.7699 46.7518 40.2799 47.1418 39.3499C47.1218 38.1599 42.1518 33.1999 39.7618 30.8099L39.0618 30.1099C35.6118 26.6599 33.6818 25.8899 29.9718 25.4399C27.5718 25.1399 24.7518 25.9799 22.0318 27.7999C20.5818 28.7699 16.5918 28.1299 16.0018 27.8999C15.2018 27.5999 14.7618 26.6999 14.6118 26.3299C14.2218 25.3799 14.2018 24.3899 14.5518 23.6199C15.3118 21.9799 25.4618 16.8599 28.1618 16.4599C30.2718 16.1499 31.7418 16.6499 34.1718 17.4699C35.2918 17.8499 36.6918 18.3199 38.5018 18.8399C43.8418 20.3599 45.9218 20.1999 45.9418 20.1999C46.4818 20.1399 46.9718 20.5499 47.0318 21.0999C47.0818 21.6499 46.6918 22.1299 46.1518 22.1899C45.9118 22.2199 43.6718 22.3899 37.9518 20.7599C36.0918 20.2299 34.6718 19.7499 33.5318 19.3599C31.1718 18.5599 30.0918 18.1899 28.4518 18.4299C25.9618 18.7999 17.3418 23.3999 16.3418 24.5099C16.1618 25.0199 16.5418 25.8899 16.7618 26.0499C17.3618 26.2599 20.3318 26.4799 20.9218 26.1199C24.0418 24.0399 27.3418 23.0899 30.2218 23.4399C34.1718 23.9199 36.5918 24.7999 40.4818 28.6899L41.1818 29.3799C47.3018 35.4899 49.7418 38.3299 48.9918 40.1099C48.4318 41.4499 46.7018 43.5799 44.8018 43.8999C44.6418 43.9299 44.4818 43.9399 44.3318 43.9399L44.3218 43.9599Z" fill="black"/>
<path d="M47.8318 39.4899C47.3218 39.4899 46.8818 39.0999 46.8318 38.5799C46.7818 38.0299 47.1918 37.5499 47.7418 37.4999L50.5718 37.2599C51.1218 37.2099 51.6018 37.6199 51.6518 38.1699C51.7018 38.7199 51.2918 39.1999 50.7418 39.2499L47.9118 39.4899C47.9118 39.4899 47.8518 39.4899 47.8218 39.4899H47.8318Z" fill="black"/>
<path d="M39.8917 47.29C37.6517 47.29 36.2918 45.47 34.8518 43.57C34.5218 43.13 34.6118 42.5 35.0518 42.17C35.4918 41.84 36.1217 41.93 36.4517 42.37C38.6117 45.25 39.3318 45.83 41.3818 44.91C42.0918 44.6 42.3118 44.39 42.0218 42.51C41.9318 41.96 42.3118 41.45 42.8518 41.37C43.3918 41.28 43.9118 41.66 43.9918 42.2C44.2818 44.04 44.3618 45.77 42.1918 46.74C41.3218 47.13 40.5618 47.3 39.8818 47.3L39.8917 47.29Z" fill="black"/>
<path d="M35.5218 50.5799C34.4618 50.5799 33.2418 49.9699 31.7118 48.1399C31.3618 47.7199 31.4118 47.0899 31.8318 46.7299C32.2518 46.3799 32.8818 46.4299 33.2418 46.8499C35.1518 49.1299 35.7318 48.7199 36.8018 47.9699C37.4818 47.4899 37.4818 47.4499 37.4418 46.3899V45.9599C37.4118 45.4099 37.8518 44.9499 38.4018 44.9399C38.9518 44.9099 39.4117 45.3599 39.4217 45.9099V46.3199C39.4817 47.5399 39.5118 48.4999 37.9718 49.5799C37.2218 50.1099 36.4218 50.5699 35.5118 50.5699L35.5218 50.5799Z" fill="black"/>
<path d="M17.7817 23.3199C17.7817 23.3199 17.7117 23.3199 17.6717 23.3199L13.0718 22.8199C12.5218 22.7599 12.1217 22.2699 12.1817 21.7199C12.2417 21.1699 12.7417 20.7799 13.2817 20.8299L17.8818 21.3299C18.4318 21.3899 18.8317 21.8799 18.7717 22.4299C18.7117 22.9399 18.2817 23.3199 17.7817 23.3199Z" fill="black"/>
<path d="M24.6718 53.1599C23.1518 53.1599 21.8518 52.2299 21.3218 50.9299C19.6718 51.2399 17.9818 50.2799 17.2518 48.6999C17.0018 48.7499 16.7418 48.7699 16.4918 48.7699C14.3418 48.7699 12.5618 47.1899 12.2418 45.1299C10.5818 45.0299 9.26178 43.6499 9.26178 41.9699C9.26178 40.2899 10.6818 38.7999 12.4318 38.7999C13.6018 38.7999 14.6218 39.4199 15.1718 40.3699C15.6018 40.2299 16.0418 40.1599 16.5018 40.1599C18.2118 40.1599 19.7218 41.1699 20.4118 42.6599C22.3818 42.4999 24.1218 44.0599 24.4418 46.1299C26.5018 45.9899 28.2918 47.6199 28.2918 49.6399C28.2918 51.5799 26.6718 53.1599 24.6918 53.1599H24.6718ZM22.0718 48.5599C22.2418 48.5599 22.4118 48.5999 22.5618 48.6899C22.8918 48.8699 23.0818 49.2199 23.0718 49.5999C23.0718 50.4799 23.7918 51.1599 24.6718 51.1599C25.5518 51.1599 26.2718 50.4799 26.2718 49.6399C26.2718 48.7999 25.5518 48.1199 24.6718 48.1199C24.4018 48.1199 24.1318 48.1899 23.8918 48.3099C23.5518 48.4899 23.1418 48.4599 22.8418 48.2399C22.5318 48.0199 22.3818 47.6399 22.4418 47.2599C22.4618 47.1199 22.4818 46.9699 22.4818 46.8199C22.4818 45.3999 21.2918 44.2899 20.1018 44.7599C19.8218 44.8699 19.5118 44.8499 19.2518 44.7099C18.9918 44.5699 18.8118 44.3199 18.7518 44.0199C18.5418 42.9399 17.5918 42.1599 16.4918 42.1599C16.0118 42.1599 15.5518 42.3099 15.1618 42.5899C14.8718 42.7999 14.4918 42.8299 14.1618 42.6799C13.8418 42.5299 13.6218 42.2199 13.5818 41.8599C13.5218 41.2599 13.0218 40.7999 12.4218 40.7999C11.7818 40.7999 11.2518 41.3199 11.2518 41.9699C11.2518 42.7599 12.0918 43.3599 12.8518 43.0499C13.1818 42.9199 13.5618 42.9699 13.8418 43.1999C14.1218 43.4199 14.2618 43.7799 14.2118 44.1299C14.1918 44.2399 14.1818 44.3499 14.1818 44.4599C14.1818 45.7299 15.2118 46.7699 16.4918 46.7699C16.8318 46.7699 17.1618 46.6999 17.4718 46.5499C17.7518 46.4199 18.0818 46.4199 18.3618 46.5699C18.6418 46.7099 18.8318 46.9799 18.8918 47.2799C19.0718 48.2799 19.8218 48.9999 20.6718 48.9999C20.9718 48.9999 21.2618 48.9099 21.5418 48.7299C21.7118 48.6199 21.9018 48.5699 22.0918 48.5699L22.0718 48.5599Z" fill="black"/>
<path d="M10.8718 41.4499C10.4918 41.4499 10.1218 41.2299 9.95176 40.8499C9.93176 40.8099 9.45176 39.8499 7.92176 38.8499C7.46176 38.5499 7.33179 37.9299 7.63179 37.4699C7.93179 37.0099 8.55179 36.8799 9.01179 37.1799C11.0918 38.5399 11.7118 39.9099 11.7818 40.0599C12.0018 40.5699 11.7618 41.1599 11.2518 41.3699C11.1218 41.4199 10.9918 41.4499 10.8618 41.4499H10.8718Z" fill="black"/>
<path d="M31.4318 52.6399C29.9618 52.6399 28.4018 52.1299 26.6818 51.1099C26.2118 50.8299 26.0518 50.2099 26.3318 49.7399C26.6118 49.2699 27.2317 49.1099 27.7017 49.3899C29.4117 50.4099 30.8617 50.7999 32.1417 50.5799C33.0517 50.4199 33.8218 49.4199 34.0218 49.0799C34.3018 48.5999 34.9118 48.4499 35.3918 48.7299C35.8718 49.0099 36.0318 49.6199 35.7418 50.0999C35.6118 50.3199 34.4518 52.2199 32.4718 52.5599C32.1218 52.6199 31.7717 52.6499 31.4217 52.6499L31.4318 52.6399Z" fill="black"/>
</svg>
