<?xml version="1.0" encoding="utf-8"?><svg width="24" height="24" fill="none" xmlns="http://www.w3.org/2000/svg" viewBox="0 0 24 24"><g clip-path="url(#adclip0_322_156)" fill="#fff"><path d="M15 4c-4.42 0-8 3.58-8 8s3.58 8 8 8 8-3.58 8-8-3.58-8-8-8zm0 14c-3.31 0-6-2.69-6-6s2.69-6 6-6 6 2.69 6 6-2.69 6-6 6zM3 12a5.99 5.99 0 014-5.65V4.26C3.55 5.15 1 8.27 1 12c0 3.73 2.55 6.85 6 7.74v-2.09A5.99 5.99 0 013 12z"/></g><defs><clipPath id="adclip0_322_156"><path fill="#fff" d="M0 0h24v24H0z"/></clipPath></defs></svg>