<?xml version="1.0" encoding="utf-8"?><svg width="64" height="64" fill="none" xmlns="http://www.w3.org/2000/svg" viewBox="0 0 64 64"><circle cx="32" cy="32" r="32" fill="#C94B23"/><path d="M23.69 51.81c-.2 0-.4-.08-.55-.23a.79.79 0 01-.01-1.12c2.13-2.19 3.19-4.34 3.16-6.39-.04-2.29-1.4-4.01-2.83-5.83-1.57-2-3.2-4.06-3.1-6.98.05-1.43.79-2.85 1.45-4.1.47-.9.96-1.84.96-2.42 0-.44.36-.79.79-.79.43 0 .79.36.79.79 0 .97-.56 2.03-1.14 3.15-.6 1.16-1.23 2.35-1.27 3.42-.08 2.33 1.3 4.08 2.76 5.94 1.54 1.95 3.12 3.96 3.17 6.78.05 2.49-1.17 5.03-3.61 7.53-.16.16-.36.24-.57.24v.01z" fill="#fff"/><path d="M27.67 25.44l-4.13-5.35-4.12 5.35h8.25zM32.76 51.81c-.2 0-.4-.08-.55-.23a.79.79 0 01-.01-1.12c2.13-2.19 3.19-4.34 3.16-6.39-.04-2.29-1.4-4.01-2.83-5.83-1.58-2-3.21-4.06-3.1-6.98.05-1.43.79-2.85 1.45-4.1.47-.9.96-1.84.96-2.42 0-.44.36-.79.79-.79.43 0 .79.36.79.79 0 .97-.56 2.03-1.14 3.15-.6 1.15-1.23 2.35-1.26 3.42-.08 2.33 1.3 4.08 2.76 5.94 1.54 1.95 3.12 3.96 3.17 6.78.04 2.49-1.17 5.03-3.61 7.53-.16.16-.36.24-.57.24l-.01.01z" fill="#fff"/><path d="M36.74 25.44l-4.13-5.35-4.12 5.35h8.25zM41.98 51.81c-.2 0-.4-.08-.55-.23a.79.79 0 01-.01-1.12c2.13-2.19 3.19-4.34 3.16-6.39-.04-2.29-1.4-4.01-2.83-5.83-1.58-2-3.21-4.06-3.1-6.98.05-1.43.79-2.85 1.45-4.1.47-.9.96-1.84.96-2.42 0-.44.36-.79.79-.79.43 0 .79.36.79.79 0 .97-.56 2.03-1.14 3.15-.6 1.15-1.23 2.35-1.26 3.42-.08 2.33 1.3 4.08 2.76 5.94 1.53 1.95 3.12 3.96 3.17 6.78.05 2.49-1.17 5.03-3.61 7.53-.16.16-.36.24-.57.24l-.01.01z" fill="#fff"/><path d="M45.96 25.44l-4.12-5.35-4.13 5.35h8.25zM47.32 44.34H16.09a6.09 6.09 0 01-6.08-6.08v-8.58c0-.44.36-.79.79-.79.43 0 .79.36.79.79v8.58c0 2.48 2.02 4.49 4.49 4.49h31.23c2.48 0 4.49-2.02 4.49-4.49v-8.58c0-.44.36-.79.79-.79.43 0 .79.36.79.79v8.58a6.09 6.09 0 01-6.08 6.08h.02zM52.6 27.26c-.44 0-.79-.36-.79-.79v-5.39c0-2.48-2.02-4.49-4.49-4.49h-.53c-.44 0-.79-.36-.79-.79 0-.43.36-.79.79-.79h.53a6.09 6.09 0 016.08 6.08v5.39c0 .44-.36.79-.79.79l-.01-.01zm-41.81 0c-.44 0-.79-.36-.79-.79v-5.39A6.09 6.09 0 0116.08 15h2.16c.44 0 .79.36.79.79 0 .43-.36.79-.79.79h-2.16c-2.48 0-4.49 2.02-4.49 4.49v5.39c0 .44-.36.79-.79.79l-.01.01zm29.65-10.68H24.58c-.44 0-.79-.36-.79-.79 0-.43.36-.79.79-.79h15.86c.44 0 .79.36.79.79 0 .43-.36.79-.79.79z" fill="#fff"/></svg>