<?xml version="1.0" encoding="utf-8"?><svg width="64" height="64" fill="none" xmlns="http://www.w3.org/2000/svg" viewBox="0 0 64 64"><circle cx="32" cy="32" r="32" fill="#C94B23"/><path d="M32.4 44.34a.692.692 0 01-.69-.7V31.23c0-.26.15-.5.38-.62l10.71-5.47c.22-.11.47-.1.68.03.21.13.33.35.33.6v12.41c0 .26-.15.5-.38.62l-10.71 5.47c-.1.05-.21.08-.32.08v-.01zm.7-12.69V42.5l9.31-4.76V26.89l-9.31 4.76z" fill="#fff"/><path d="M32.4 44.34c-.11 0-.22-.03-.32-.08l-10.71-5.47a.705.705 0 01-.38-.62V25.76c0-.24.13-.47.33-.6.21-.13.47-.14.68-.03l10.71 5.47c.23.12.38.36.38.62v12.41c0 .24-.13.47-.33.6-.11.07-.24.1-.36.1v.01zm-10.01-6.6l9.31 4.76V31.65l-9.31-4.76v10.85z" fill="#fff"/><path d="M32.4 31.92c-.11 0-.22-.03-.32-.08l-10.71-5.47a.694.694 0 01-.38-.6c0-.25.12-.49.34-.62l10.71-6.47c.22-.13.5-.13.72 0l10.71 6.47c.22.13.35.37.34.62 0 .25-.15.48-.38.6l-10.71 5.47c-.1.05-.21.08-.32.08zm-9.27-6.22l9.27 4.74 9.27-4.74-9.27-5.61-9.27 5.61zM10.7 45.31a.68.68 0 01-.6-.35.713.713 0 01.25-.96l10.99-6.44c.33-.19.76-.08.96.25.19.33.08.76-.25.96l-10.99 6.44c-.11.06-.23.1-.35.1h-.01zM53.19 44.29a.8.8 0 01-.33-.08l-10.09-5.43a.694.694 0 01-.28-.95c.18-.34.61-.47.95-.28l10.09 5.43c.34.18.47.61.28.95a.72.72 0 01-.62.37v-.01z" fill="#fff"/><path d="M32.4 19.98c-.39 0-.7-.31-.7-.7V8.7c0-.39.31-.7.7-.7.39 0 .7.31.7.7v10.58c0 .39-.31.7-.7.7z" fill="#fff"/><path d="M34.61 11.62c-.18 0-.36-.07-.49-.2l-1.73-1.73-1.73 1.73c-.27.27-.71.27-.99 0a.697.697 0 010-.99l2.22-2.22c.27-.27.71-.27.99 0l2.22 2.22c.27.27.27.71 0 .99-.14.14-.31.2-.49.2zM13.75 46.05c-.06 0-.11 0-.17-.02l-3.05-.76a.704.704 0 01-.51-.85l.76-3.05c.09-.37.47-.6.85-.51.37.09.6.47.51.85l-.59 2.37 2.37.59c.37.09.6.47.51.85-.08.32-.36.53-.68.53zM50.15 45.08c-.31 0-.6-.21-.68-.53-.09-.37.14-.75.51-.84l2.37-.58-.58-2.37c-.09-.37.14-.75.51-.84.37-.09.75.14.84.51l.75 3.05c.04.18.01.37-.08.53a.73.73 0 01-.43.32l-3.05.75c-.06.01-.11.02-.17.02l.01-.02zM32.42 51.07c-3.33 0-6.58-.86-9.43-2.5a.701.701 0 01-.26-.95c.19-.33.62-.45.95-.26 2.64 1.51 5.65 2.31 8.71 2.31 3.3-.13 6.29-.92 8.84-2.35.34-.19.76-.07.95.27.19.34.07.76-.27.95-2.75 1.54-5.95 2.38-9.5 2.53h.01zM14.18 32.89c-.39 0-.7-.27-.7-.66h.7l-.7-.05c0-6.75 3.62-13.03 9.45-16.4.33-.2.76-.08.95.25.19.33.08.76-.25.95-5.4 3.13-8.75 8.94-8.75 15.17 0 .39-.31.74-.7.74zm36.34-.08c-.38 0-.7-.31-.7-.7-.01-6.52-3.25-12.19-8.65-15.17a.694.694 0 01-.27-.95c.19-.34.61-.46.95-.27 5.85 3.23 9.35 9.36 9.37 16.39 0 .39-.31.7-.7.7z" fill="#fff"/></svg>