<?xml version="1.0" encoding="utf-8"?><svg width="64" height="64" fill="none" xmlns="http://www.w3.org/2000/svg" viewBox="0 0 64 64"><circle cx="32" cy="32" r="32" fill="#C94B23"/><path d="M33.66 44.95v-3.59H29.7v3.56l-.91-.21C22.54 43.31 18 37.63 18 31.21s4.54-12.09 10.79-13.5l.91-.21v4.04h3.96v-4.07l.9.18c6.43 1.29 11.1 6.99 11.1 13.56s-4.67 12.27-11.1 13.56l-.9.18zm-5.46-5.09h6.96v3.23c5.26-1.47 8.99-6.33 8.99-11.87 0-5.54-3.73-10.4-8.99-11.87v3.71H28.2v-3.62c-5.1 1.57-8.71 6.39-8.71 11.79 0 5.4 3.61 10.22 8.71 11.79V39.86z" fill="#fff"/><path d="M25.35 34.66a3.44 3.44 0 110-6.88 3.44 3.44 0 010 6.88zm0-5.39c-1.07 0-1.94.87-1.94 1.94 0 1.07.87 1.94 1.94 1.94 1.07 0 1.94-.87 1.94-1.94 0-1.07-.87-1.94-1.94-1.94zM38.35 34.66a3.44 3.44 0 110-6.88 3.44 3.44 0 010 6.88zm0-5.39c-1.07 0-1.94.87-1.94 1.94 0 1.07.87 1.94 1.94 1.94 1.07 0 1.94-.87 1.94-1.94 0-1.07-.87-1.94-1.94-1.94z" fill="#fff"/><path d="M45.71 49.79H17.75c-2.62 0-4.75-2.13-4.75-4.75V16.75c0-2.62 2.13-4.75 4.75-4.75h27.96c2.62 0 4.75 2.13 4.75 4.75v28.29c0 2.62-2.13 4.75-4.75 4.75zM17.75 13.5c-1.79 0-3.25 1.46-3.25 3.25v28.29c0 1.79 1.46 3.25 3.25 3.25h27.96c1.79 0 3.25-1.46 3.25-3.25V16.75c0-1.79-1.46-3.25-3.25-3.25H17.75z" fill="#fff"/></svg>