<?xml version="1.0" encoding="utf-8"?><svg width="64" height="64" fill="none" xmlns="http://www.w3.org/2000/svg" viewBox="0 0 64 64"><circle cx="32" cy="32" r="32" fill="#C94B23"/><path d="M13.55 34.18c-1.53 0-2.78-1.25-2.78-2.78h1.5c0 .71.57 1.28 1.28 1.28.71 0 1.28-.57 1.28-1.28 0-.71-.57-1.28-1.28-1.28v-1.5c1.53 0 2.78 1.25 2.78 2.78 0 1.53-1.25 2.78-2.78 2.78z" fill="#fff"/><path d="M14.3 23.27h-1.5v6.11h1.5v-6.11zM45.03 52.55h-1.5V22.52h5.77v-5.67h-4.69l-.07 1.72-1.5-.06.13-3.16h7.63v8.67h-5.77v28.53z" fill="#fff"/><path d="M44.27 22.52h-5.22v1.5h5.22v-1.5z" fill="#fff"/><path d="M39.8 52.55h-1.5V24.02H8l5.2-6.23h22.52v1.5H13.9l-2.69 3.23H39.8v30.03z" fill="#fff"/><path d="M39.8 25.63l-4.47-6.34H21.9L39.06 9l10.61 6.46-.78 1.28-9.08-5.53v14.42h-.01zm-12.49-7.84h8.79l2.2 3.11v-9.7l-10.99 6.59z" fill="#fff"/><path d="M39.58 52.73l-1.06-1.06 4.77-4.77-5.4-5.4 5.44-5.43-5.32-5.32 5.09-5.09-1.77-1.76 1.07-1.06 2.82 2.82-5.09 5.09 5.32 5.32-5.43 5.43 5.39 5.4-5.83 5.83zM18.97 52.55h-1.5V36.12h17.87v1.5H18.97v14.93z" fill="#fff"/><path d="M22.3 31.41h-1.5v5.46h1.5v-5.46zM27.8 31.41h-1.5v5.46h1.5v-5.46zM33.3 31.41h-1.5v5.46h1.5v-5.46zM35.34 45.66H20.8v-6h14.54v1.5H22.3v3h13.04v1.5zM35.34 52.95H20.8v-6h14.54v1.5H22.3v3h13.04v1.5z" fill="#fff"/><path d="M26.32 44.92c-.09-4.73-.06-4.76.21-5.04l.54-.23v.75l.73.14c-.03.29-.02 2.44.02 4.35l-1.5.03zM27.82 47.7h-1.5v4.5h1.5v-4.5zM31.82 44.92c-.09-4.73-.06-4.76.21-5.04l.54-.23v.75l.73.14c-.03.29-.02 2.44.02 4.35l-1.5.03zM33.32 47.7h-1.5v4.5h1.5v-4.5z" fill="#fff"/></svg>