<?xml version="1.0" encoding="utf-8"?><svg width="64" height="64" fill="none" xmlns="http://www.w3.org/2000/svg" viewBox="0 0 64 64"><circle cx="32" cy="32" r="32" fill="#C94B23"/><path d="M25.32 44.85a.74.74 0 01-.62-.33l-7.78-11.38a.744.744 0 01.2-1.04c.34-.24.81-.15 1.04.2l7.78 11.38c.23.34.15.81-.2 1.04a.74.74 0 01-.42.13zM48.53 50.84H23.51c-.32 0-.61-.21-.71-.51-.1-.3 0-.64.26-.84l3.83-2.89c2-1.5 2.91-2.18 2.91-4.5v-.76c0-.41.34-.75.75-.75h17.99c.41 0 .75.34.75.75v8.74c0 .41-.34.75-.75.75l-.01.01zm-22.78-1.5h22.03V42.1H31.29c0 3.07-1.47 4.18-3.51 5.71l-2.04 1.54.01-.01z" fill="#fff"/><path d="M45.07 42.1H30.54c-.41 0-.75-.34-.75-.75V37.5c0-.41.34-.75.75-.75h14.53c.41 0 .75.34.75.75v3.85c0 .41-.34.75-.75.75zm-13.78-1.5h13.03v-2.35H31.29v2.35zM27.53 30.6c-.05 0-.1 0-.15-.02a.74.74 0 01-.58-.89l.49-2.39-5.28-4.56a.756.756 0 01-.08-1.06c.27-.31.75-.35 1.06-.08l5.61 4.85c.21.18.3.45.24.72l-.58 2.82c-.07.35-.39.6-.73.6v.01z" fill="#fff"/><path d="M43.01 38.25c-.35 0-.66-.24-.73-.6l-2.16-10.48c-.05-.27.04-.54.24-.72l5.35-4.62V12.5h-3.28v4.04c0 .41-.34.75-.75.75H37c-.41 0-.75-.34-.75-.75V12.5h-3.21v4.04c0 .41-.34.75-.75.75h-4.68c-.41 0-.75-.34-.75-.75V12.5h-3.61v8.92h11.23c.41 0 .75.34.75.75s-.34.75-.75.75H22.5c-.41 0-.75-.34-.75-.75V11.75c0-.41.34-.75.75-.75h5.11c.41 0 .75.34.75.75v4.04h3.18v-4.04c0-.41.34-.75.75-.75H37c.41 0 .75.34.75.75v4.04h3.18v-4.04c0-.41.34-.75.75-.75h4.78c.41 0 .75.34.75.75v10.42c0 .22-.09.42-.26.57l-5.28 4.56 2.07 10.05c.08.41-.18.8-.58.89-.05.01-.1.02-.15.02v-.01zM20.65 53c-.16 0-.32-.05-.45-.15l-6.69-5.04c-2.04-1.53-3.51-2.63-3.51-5.7V30.48c0-.36.26-.67.62-.74l2.69-.49c1.54-.28 2.99-.82 4.33-1.61l2.64-1.55c.22-.13.5-.14.73-.01l3.34 1.8c1.05.56 2.18.98 3.35 1.24l.11.03.16.04 2.74.56c.35.07.6.38.6.73v11.63c0 3.06-1.47 4.17-3.51 5.7l-6.68 5.04c-.13.1-.29.15-.45.15h-.02zM11.5 31.11v11.01c0 2.31.91 3 2.91 4.5l6.24 4.7 6.23-4.7c2-1.5 2.91-2.18 2.91-4.5V31.1l-2.34-.49-.11-.02c-1.28-.29-2.54-.75-3.71-1.38l-2.97-1.6-2.27 1.33c-1.48.88-3.11 1.48-4.82 1.79l-2.08.38h.01z" fill="#fff"/><path d="M20.91 44.65a.74.74 0 01-.62-.33l-4.42-6.47a.744.744 0 01.2-1.04c.34-.24.81-.15 1.04.2l4.42 6.47c.23.34.15.81-.2 1.04a.74.74 0 01-.42.13z" fill="#fff"/></svg>