<?xml version="1.0" encoding="utf-8"?><svg width="52" height="55" fill="none" xmlns="http://www.w3.org/2000/svg" viewBox="0 0 52 55"><path d="M31.01 15.03c-.53 0-.97-.42-1-.95L29.44 2h-7.73l-.41 12.07c-.02.55-.49 1-1.03.97a1.01 1.01 0 01-.97-1.03L19.74.97c.02-.54.46-.97 1-.97h9.65c.53 0 .97.42 1 .95l.62 13.04c.03.55-.4 1.02-.95 1.05h-.05v-.01zM47.04 23.42h-.05c-.55-.03-.98-.5-.95-1.05.37-7.06-4.51-14.37-10.31-15.83v14.03c0 .55-.45 1-1 1s-1-.45-1-1V5.34c0-.29.12-.56.33-.75.21-.19.5-.28.78-.25 7.36.86 13.65 9.49 13.19 18.12-.03.53-.47.95-1 .95l.01.01zM4.27 23.42a1 1 0 01-1-.95C2.81 13.84 9.1 5.2 16.46 4.35c.28-.03.57.06.78.25.21.19.33.46.33.75v15.23c0 .55-.45 1-1 1s-1-.45-1-1V6.54C9.77 8 4.89 15.3 5.26 22.37a.997.997 0 01-.95 1.05h-.05.01zM25.66 27.99c-4.63 0-17.93-1.62-18.49-1.68a.998.998 0 01.24-1.98c.14.02 13.75 1.67 18.25 1.67s18.11-1.65 18.25-1.67a.994.994 0 011.11.87.987.987 0 01-.87 1.11c-.56.07-13.87 1.68-18.49 1.68z" fill="#1A1A1A"/><path d="M25.66 35.85c-6.38 0-18.27 0-25.43-8.75a.978.978 0 01-.23-.63v-3.35c0-.55.45-1 1-1s1 .45 1 1v2.99c6.06 7.14 15.38 7.75 23.66 7.75s17.59-.6 23.66-7.75v-2.99c0-.55.45-1 1-1s1 .45 1 1v3.35c0 .23-.08.45-.23.63-7.16 8.75-19.05 8.75-25.43 8.75zM25.66 43.08c-2.27 0-4.39-1.05-5.54-2.75a.999.999 0 01.27-1.39.999.999 0 011.39.27c.78 1.15 2.27 1.87 3.88 1.87 1.61 0 3.1-.72 3.88-1.87.31-.46.93-.57 1.39-.26.46.31.57.93.26 1.39-1.15 1.69-3.28 2.75-5.54 2.75l.01-.01z" fill="#1A1A1A"/><path d="M29.42 54.2h-7.41l-.99-5.19c-1.19-.29-2.34-.69-3.45-1.2l-5.05 3.07-5.39-4.54 3.68-4.3c-.54-.85-.98-1.75-1.32-2.7l-6.2-.85v-5.73c0-.55.45-1 1-1s1 .45 1 1v3.98l5.73.78.19.62c.36 1.21.92 2.34 1.67 3.37l.46.64-3.39 3.96 2.75 2.32 4.76-2.9.5.25c1.29.65 2.67 1.13 4.11 1.42l.66.13.93 4.87h4.1l.93-4.89.65-.14c1.41-.3 2.79-.78 4.08-1.44l.5-.25 4.77 2.91 2.75-2.32-3.41-4 .45-.64c.73-1.02 1.27-2.15 1.63-3.34l.18-.62 5.77-.78v-3.98c0-.55.45-1 1-1s1 .45 1 1v5.73l-6.23.85c-.33.93-.75 1.82-1.28 2.66l3.72 4.36-5.38 4.54-5.05-3.08c-1.1.52-2.24.92-3.41 1.21l-1 5.22h-.01z" fill="#1A1A1A"/></svg>