<?xml version="1.0" encoding="utf-8"?><svg width="55" height="55" fill="none" xmlns="http://www.w3.org/2000/svg" viewBox="0 0 55 55"><path d="M27.14 34.85c-4.22 0-7.66-3.43-7.66-7.66 0-1.24.3-2.48.88-3.57.26-.49.86-.68 1.35-.42.49.26.68.86.42 1.35-.43.82-.65 1.7-.65 2.63 0 3.12 2.54 5.66 5.66 5.66s5.66-2.54 5.66-5.66-2.54-5.66-5.66-5.66c-.67 0-1.33.12-1.96.35a.993.993 0 01-1.28-.59.993.993 0 01.59-1.28c.85-.31 1.74-.47 2.65-.47 4.22 0 7.66 3.43 7.66 7.66a7.66 7.66 0 01-7.66 7.66z" fill="#1A1A1A"/><path d="M27.14 41.05c-7.64 0-13.85-6.22-13.85-13.85 0-3.15 1.03-6.11 2.97-8.58a1 1 0 011.4-.17 1 1 0 01.17 1.4 11.766 11.766 0 00-2.54 7.34c0 6.54 5.32 11.85 11.85 11.85 6.53 0 11.85-5.32 11.85-11.85 0-6.53-5.32-11.85-11.85-11.85-1.97 0-3.93.49-5.65 1.43-.49.26-1.09.08-1.36-.4-.26-.49-.08-1.09.4-1.36a13.94 13.94 0 016.6-1.67c7.64 0 13.85 6.22 13.85 13.85s-6.22 13.85-13.85 13.85l.01.01z" fill="#1A1A1A"/><path d="M31.59 54.36h-8.75l-1.21-7.49c-1.53-.43-3-1.03-4.39-1.8l-6.16 4.46-6.19-6.19 4.44-6.14c-.78-1.39-1.4-2.86-1.83-4.4L0 31.59v-8.75l7.48-1.2c.49-1.74 1.21-3.41 2.15-4.97.29-.47.9-.63 1.37-.34.47.28.63.9.34 1.37-.95 1.57-1.65 3.28-2.09 5.06l-.16.64-7.1 1.14v5.35l7.11 1.14.16.64c.45 1.79 1.16 3.49 2.11 5.06l.34.57-4.21 5.82 3.78 3.78 5.84-4.22.57.34c1.58.94 3.28 1.64 5.06 2.08l.64.16 1.14 7.11h5.35l1.15-7.14.64-.16c1.77-.45 3.46-1.15 5.02-2.1l.57-.34 5.86 4.23 3.78-3.78-4.25-5.88.34-.57a18.58 18.58 0 002.06-5.01l.16-.64 7.16-1.15v-5.35l-7.18-1.16-.16-.64c-.44-1.76-1.14-3.44-2.08-4.99l-.34-.57 4.25-5.88-3.78-3.78-5.89 4.26-.57-.34c-1.56-.94-3.25-1.63-5.01-2.07l-.64-.16L29.82 2h-5.35l-.35 2.19a1.004 1.004 0 01-1.98-.32L22.76 0h8.75l1.21 7.54c1.51.43 2.96 1.03 4.34 1.79l6.21-4.49 6.19 6.19-4.48 6.2c.77 1.37 1.37 2.82 1.8 4.32l7.57 1.22v8.75l-7.54 1.21c-.42 1.51-1.02 2.97-1.78 4.34l4.49 6.21-6.19 6.19-6.17-4.46c-1.38.78-2.84 1.39-4.36 1.82l-1.21 7.53z" fill="#1A1A1A"/><path d="M7.67 14.31c-.31 0-.62-.14-.81-.41l-2.03-2.81 6.19-6.19 6.17 4.46c1.57-.88 3.25-1.54 5-1.98a.992.992 0 011.21.73.995.995 0 01-.73 1.21c-1.77.44-3.46 1.14-5.03 2.09l-.57.34-5.85-4.23-3.78 3.78 1.04 1.43a1.007 1.007 0 01-.81 1.59v-.01z" fill="#1A1A1A"/></svg>