<?xml version="1.0" encoding="utf-8"?><svg width="60" height="54" fill="none" xmlns="http://www.w3.org/2000/svg" viewBox="0 0 60 54"><path d="M14.392 18.17c-.31 0-.62-.14-.81-.41l-4.86-6.73 6.19-6.19 6.21 4.49c1.37-.76 2.83-1.37 4.34-1.79L26.672 0h8.75l.62 3.87a1.004 1.004 0 01-1.98.32L33.712 2h-5.35l-1.15 7.15-.64.16c-1.76.44-3.45 1.13-5.01 2.07l-.57.34-5.89-4.26-3.78 3.78 3.86 5.35c.32.45.22 1.07-.22 1.4a.98.98 0 01-.58.19l.01-.01zM50.512 14.31a.96.96 0 01-.58-.19.995.995 0 01-.22-1.4l1.04-1.43-3.78-3.78-5.85 4.23-.57-.34c-1.57-.94-3.26-1.65-5.03-2.09a1 1 0 01.48-1.94c1.75.44 3.43 1.1 5 1.98l6.17-4.46 6.19 6.19-2.03 2.81a1 1 0 01-.81.41l-.01.01z" fill="#1A1A1A"/><path d="M54.022 40.09c-2.24 0-4.3-1.49-4.92-3.76l-3.44-12.66a5.04 5.04 0 01.5-3.87 5.035 5.035 0 013.09-2.38c2.71-.74 5.51.87 6.25 3.58l3.44 12.66a5.04 5.04 0 01-.5 3.87 5.035 5.035 0 01-3.09 2.38c-.44.12-.89.18-1.33.18zm-3.44-20.85c-.27 0-.54.04-.81.11-.8.22-1.46.73-1.87 1.45-.41.72-.52 1.55-.3 2.35l3.44 12.66a3.106 3.106 0 003.8 2.18 3.106 3.106 0 002.18-3.8l-3.44-12.66a3.085 3.085 0 00-2.99-2.28l-.01-.01zM5.092 40.06c-.47 0-.95-.07-1.42-.2-2.7-.78-4.25-3.61-3.47-6.31l3.66-12.6a5.044 5.044 0 012.44-3.04c1.19-.65 2.57-.81 3.88-.43 1.31.38 2.39 1.25 3.04 2.44.66 1.19.81 2.57.43 3.88l-3.66 12.6a5.1 5.1 0 01-4.89 3.67l-.01-.01zm3.66-20.79c-1.34 0-2.58.88-2.97 2.23l-3.66 12.6c-.48 1.64.47 3.36 2.11 3.83 1.64.48 3.36-.47 3.83-2.11l3.66-12.6a3.086 3.086 0 00-2.97-3.95z" fill="#000"/><path d="M44.322 43.96c-.77 0-1.49-.33-2.04-.95-1.79-1.99-3.49-3.85-3.49-3.85a.996.996 0 01.06-1.41.996.996 0 011.41.06s1.71 1.87 3.5 3.86c.27.3.49.3.7.27.99-.17 2.29-1.66 2.68-2.59-.02-1.19-4.99-6.15-7.38-8.54l-.7-.7c-3.45-3.45-5.38-4.22-9.09-4.67-2.4-.3-5.22.54-7.94 2.36-1.45.97-5.44.33-6.03.1-.8-.3-1.24-1.2-1.39-1.57-.39-.95-.41-1.94-.06-2.71.76-1.64 10.91-6.76 13.61-7.16 2.11-.31 3.58.19 6.01 1.01 1.12.38 2.52.85 4.33 1.37 5.34 1.52 7.42 1.36 7.44 1.36.54-.06 1.03.35 1.09.9a.997.997 0 01-.88 1.09c-.24.03-2.48.2-8.2-1.43a84.19 84.19 0 01-4.42-1.4c-2.36-.8-3.44-1.17-5.08-.93-2.49.37-11.11 4.97-12.11 6.08-.18.51.2 1.38.42 1.54.6.21 3.57.43 4.16.07 3.12-2.08 6.42-3.03 9.3-2.68 3.95.48 6.37 1.36 10.26 5.25l.7.69c6.12 6.11 8.56 8.95 7.81 10.73-.56 1.34-2.29 3.47-4.19 3.79-.16.03-.32.04-.47.04l-.01.02z" fill="#000"/><path d="M47.832 39.49c-.51 0-.95-.39-1-.91a.998.998 0 01.91-1.08l2.83-.24a.998.998 0 11.17 1.99l-2.83.24h-.09.01zM39.892 47.29c-2.24 0-3.6-1.82-5.04-3.72-.33-.44-.24-1.07.2-1.4.44-.33 1.07-.24 1.4.2 2.16 2.88 2.88 3.46 4.93 2.54.71-.31.93-.52.64-2.4a.99.99 0 01.83-1.14.996.996 0 011.14.83c.29 1.84.37 3.57-1.8 4.54-.87.39-1.63.56-2.31.56l.01-.01z" fill="#000"/><path d="M35.522 50.58c-1.06 0-2.28-.61-3.81-2.44-.35-.42-.3-1.05.12-1.41.42-.35 1.05-.3 1.41.12 1.91 2.28 2.49 1.87 3.56 1.12.68-.48.68-.52.64-1.58v-.43a.974.974 0 01.96-1.02c.55-.03 1.01.42 1.02.97v.41c.06 1.22.09 2.18-1.45 3.26-.75.53-1.55.99-2.46.99l.01.01zM17.782 23.32h-.11l-4.6-.5a1 1 0 01-.89-1.1c.06-.55.56-.94 1.1-.89l4.6.5a1 1 0 01.89 1.1c-.06.51-.49.89-.99.89zM24.672 53.16c-1.52 0-2.82-.93-3.35-2.23-1.65.31-3.34-.65-4.07-2.23-.25.05-.51.07-.76.07-2.15 0-3.93-1.58-4.25-3.64a3.174 3.174 0 01-2.98-3.16c0-1.68 1.42-3.17 3.17-3.17 1.17 0 2.19.62 2.74 1.57a4.316 4.316 0 015.24 2.29c1.97-.16 3.71 1.4 4.03 3.47 2.06-.14 3.85 1.49 3.85 3.51 0 1.94-1.62 3.52-3.6 3.52h-.02zm-2.6-4.6c.17 0 .34.04.49.13.33.18.52.53.51.91 0 .88.72 1.56 1.6 1.56.88 0 1.6-.68 1.6-1.52s-.72-1.52-1.6-1.52c-.27 0-.54.07-.78.19a.994.994 0 01-1.45-1.05c.02-.14.04-.29.04-.44 0-1.42-1.19-2.53-2.38-2.06a.994.994 0 01-1.35-.74 2.303 2.303 0 00-2.26-1.86c-.48 0-.94.15-1.33.43-.29.21-.67.24-1 .09-.32-.15-.54-.46-.58-.82-.06-.6-.56-1.06-1.16-1.06-.64 0-1.17.52-1.17 1.17 0 .79.84 1.39 1.6 1.08a1.008 1.008 0 011.36 1.08c-.02.11-.03.22-.03.33a2.311 2.311 0 003.29 2.09 1.013 1.013 0 011.42.73c.18 1 .93 1.72 1.78 1.72.3 0 .59-.09.87-.27.17-.11.36-.16.55-.16l-.02-.01z" fill="#000"/><path d="M10.872 41.45c-.38 0-.75-.22-.92-.6-.02-.04-.5-1-2.03-2a1 1 0 01-.29-1.38 1 1 0 011.38-.29c2.08 1.36 2.7 2.73 2.77 2.88.22.51-.02 1.1-.53 1.31-.13.05-.26.08-.39.08h.01zM31.432 52.64c-1.47 0-3.03-.51-4.75-1.53-.47-.28-.63-.9-.35-1.37.28-.47.9-.63 1.37-.35 1.71 1.02 3.16 1.41 4.44 1.19.91-.16 1.68-1.16 1.88-1.5.28-.48.89-.63 1.37-.35.48.28.64.89.35 1.37-.13.22-1.29 2.12-3.27 2.46-.35.06-.7.09-1.05.09l.01-.01z" fill="#000"/></svg>