<?xml version="1.0" encoding="utf-8"?><svg viewBox="0 0 78 78" xmlns="http://www.w3.org/2000/svg" xmlns:xlink="http://www.w3.org/1999/xlink"><style>:root>svg{display:none}:root>svg:target{display:block}</style><svg fill="none" viewBox="0 0 24 24" id="arrow-circle" xmlns="http://www.w3.org/2000/svg"><path d="M12 22C6.477 22 2 17.523 2 12S6.477 2 12 2s10 4.477 10 10-4.477 10-10 10zM8.5 12h6" stroke="#000" stroke-width="1.5" stroke-linecap="round" stroke-linejoin="round"/><path d="M12.5 9l3 3-3 3" stroke="#000" stroke-width="1.5" stroke-linecap="round" stroke-linejoin="round"/></svg><svg fill="none" viewBox="0 0 22 37" id="arrow-swiper-next" xmlns="http://www.w3.org/2000/svg"><path d="M1.97 1.373l16.971 16.97-16.97 16.97" stroke="#656565" stroke-width="3"/></svg><svg fill="none" viewBox="0 0 22 37" id="arrow-swiper-prev" xmlns="http://www.w3.org/2000/svg"><path d="M19.97 1.373L3 18.343l16.97 16.97" stroke="#656565" stroke-width="3"/></svg><svg fill="none" viewBox="0 0 24 24" id="cart" xmlns="http://www.w3.org/2000/svg"><path d="M2 8.505h20M6 16.505h2M10.5 16.505h4" stroke="#fff" stroke-width="1.5" stroke-miterlimit="10" stroke-linecap="round" stroke-linejoin="round"/><path d="M6.44 3.505h11.11c3.56 0 4.45.88 4.45 4.39v8.21c0 3.51-.89 4.39-4.44 4.39H6.44c-3.55.01-4.44-.87-4.44-4.38v-8.22c0-3.51.89-4.39 4.44-4.39z" stroke="#fff" stroke-width="1.5" stroke-linecap="round" stroke-linejoin="round"/></svg><svg fill="none" viewBox="0 0 48 48" id="circle-link" xmlns="http://www.w3.org/2000/svg"><circle cx="24" cy="24" r="23" fill="#000" stroke="#fff" stroke-width="2"/><path d="M24 14c-5.52 0-10 4.48-10 10s4.48 10 10 10 10-4.48 10-10" stroke="#fff" stroke-width="2" stroke-miterlimit="10" stroke-linecap="round" stroke-linejoin="round"/><path d="M25 23l8.2-8.2M34 18.83V14h-4.83" stroke="#fff" stroke-width="2" stroke-linecap="round" stroke-linejoin="round"/></svg><svg fill="none" viewBox="0 0 32 32" id="file" xmlns="http://www.w3.org/2000/svg"><path d="M12 22.667v-8l-2.667 2.666M12 14.667l2.667 2.666" stroke="#656565" stroke-width="1.5" stroke-linecap="round" stroke-linejoin="round"/><path d="M29.333 13.333V20c0 6.667-2.666 9.333-9.333 9.333h-8c-6.667 0-9.333-2.666-9.333-9.333v-8c0-6.667 2.666-9.333 9.333-9.333h6.667" stroke="#656565" stroke-width="1.5" stroke-linecap="round" stroke-linejoin="round"/><path d="M29.333 13.333H24c-4 0-5.333-1.333-5.333-5.333V2.667l10.666 10.666z" stroke="#656565" stroke-width="1.5" stroke-linecap="round" stroke-linejoin="round"/></svg><svg fill="none" viewBox="0 0 64 64" id="icon" xmlns="http://www.w3.org/2000/svg"><path d="M63.359 25.883l-7.952-4.025 7.952-4.026c.384-.252.641-.503.641-1.006 0-.504-.257-.755-.641-1.007L32.577.094c-.385-.125-.77-.125-1.026 0L.77 15.82c-.385.252-.642.503-.642 1.007 0 .503.257.754.642 1.006l7.951 4.026L.77 25.883c-.385.252-.642.503-.642 1.006 0 .252.129.504.257.63H.128v9.434c0 .378.257.755.513 1.007l7.696 4.277-7.696 3.9C.257 46.388 0 46.64 0 47.143s.257.755.641 1.006l30.782 15.725c.128.126.385.126.513.126s.385 0 .513-.126L63.23 48.15c.384-.251.64-.503.64-1.006s-.256-.755-.64-1.006l-7.696-3.9 7.696-4.277c.384-.252.512-.504.512-1.007v-9.435h-.256a.952.952 0 00.256-.629c.257-.377 0-.754-.384-1.006zm-59.64-9.057L32.064 2.359 60.41 16.826 32.064 31.292 3.72 16.826zm4.105 22.517l-5.387-3.019v-7.548l5.515 2.768v7.8h-.128zm52.585 7.674L32.064 61.484 3.72 47.017l7.055-3.648L31.55 54.817c.128.126.385.126.513.126s.385 0 .513-.126l20.778-11.448 7.054 3.648zm-50.277-6.416v-7.925l5.515 2.768v8.177l-5.515-3.02zm7.696 4.152v-8.177l5.515 2.767v8.429l-5.515-3.02zm21.034 4.151L33.09 52.05v-8.806l5.515-2.767v8.428h.257zM30.91 52.05l-5.643-3.145h.256v-8.428l5.515 2.767v8.806h-.128zm10.004-4.277v-8.428l5.515-2.768v8.177l-5.515 3.019zm7.695-4.151v-8.177l5.515-2.768v7.925l-5.515 3.02zm-16.545-2.265L3.72 26.89l7.44-3.773 20.392 10.44c.128.127.385.127.513.127s.385 0 .513-.126L52.97 23.115l7.439 3.774-28.345 14.467zm29.627-5.032l-5.515 3.02v-7.8l5.515-2.768v7.548z" fill="#000"/></svg><svg fill="none" viewBox="0 0 32 32" id="in" xmlns="http://www.w3.org/2000/svg"><path fill-rule="evenodd" clip-rule="evenodd" d="M0 16C0 7.163 7.163 0 16 0s16 7.163 16 16-7.163 16-16 16S0 24.837 0 16zm8.2-2.7V24h3.4V13.3H8.2zM8 9.9c0 1.1.8 1.9 1.9 1.9 1.1 0 1.9-.8 1.9-1.9C11.8 8.8 11 8 9.9 8 8.9 8 8 8.8 8 9.9zM20.6 24h3.2v-6.6c0-3.3-2-4.4-3.9-4.4-1.7 0-2.9 1.1-3.2 1.8v-1.5h-3.2V24h3.4v-5.7c0-1.5 1-2.3 2-2.3s1.7.5 1.7 2.2V24z" fill="#000"/></svg><svg fill="none" viewBox="0 0 32 32" id="insta" xmlns="http://www.w3.org/2000/svg"><path d="M16 18.8c-1.5 0-2.8-1.2-2.8-2.8 0-1.5 1.2-2.8 2.8-2.8 1.5 0 2.8 1.2 2.8 2.8 0 1.5-1.3 2.8-2.8 2.8z" fill="#000"/><path fill-rule="evenodd" clip-rule="evenodd" d="M19.4 9.2h-6.8c-.8.1-1.2.2-1.5.3-.4.1-.7.3-1 .6-.237.237-.35.475-.485.762-.036.075-.073.155-.115.238a5.48 5.48 0 01-.052.148A3.53 3.53 0 009.2 12.6v6.8c.1.8.2 1.2.3 1.5.1.4.3.7.6 1 .237.237.475.35.762.485.075.036.155.073.238.115.046.015.095.033.148.052a3.53 3.53 0 001.352.248h6.8c.8-.1 1.2-.2 1.5-.3.4-.1.7-.3 1-.6.237-.237.35-.475.485-.762.036-.075.073-.155.115-.238.015-.046.033-.095.052-.147A3.53 3.53 0 0022.8 19.4v-6.8c-.1-.8-.2-1.2-.3-1.5-.1-.4-.3-.7-.6-1-.237-.237-.475-.35-.762-.485A11.461 11.461 0 0120.9 9.5c-.046-.015-.095-.033-.147-.052A3.53 3.53 0 0019.4 9.2zM16 11.7c-2.4 0-4.3 1.9-4.3 4.3s1.9 4.3 4.3 4.3 4.3-1.9 4.3-4.3-1.9-4.3-4.3-4.3zm5.4-.1a1 1 0 11-2 0 1 1 0 012 0z" fill="#000"/><path fill-rule="evenodd" clip-rule="evenodd" d="M0 16C0 7.163 7.163 0 16 0s16 7.163 16 16-7.163 16-16 16S0 24.837 0 16zm12.6-8.3h6.8c.9.1 1.5.2 2 .4.6.3 1 .5 1.5 1s.8 1 1 1.5c.2.5.4 1.1.4 2v6.8c-.1.9-.2 1.5-.4 2-.3.6-.5 1-1 1.5s-1 .8-1.5 1c-.5.2-1.1.4-2 .4h-6.8c-.9-.1-1.5-.2-2-.4-.6-.3-1-.5-1.5-1s-.8-1-1-1.5c-.2-.5-.4-1.1-.4-2v-6.8c.1-.9.2-1.5.4-2 .3-.6.5-1 1-1.5s1-.8 1.5-1c.5-.2 1.1-.4 2-.4z" fill="#000"/></svg><svg fill="none" viewBox="0 0 50 39" id="kas" xmlns="http://www.w3.org/2000/svg"><path d="M47.323 27.944V26.9c0-1.132-.777-2.09-1.727-2.438v-.174c0-11.23-5.181-19.152-14.249-21.676.173-.436.346-.61.346-.61A.932.932 0 0031.52.958C31.174.696 29.88 0 24.957 0c-4.922 0-6.218.696-6.563.958-.346.26-.346.696-.173 1.044 0 0 .173.261.346.61-9.068 2.524-14.25 10.446-14.25 21.676v.174c-1.035.261-1.726 1.306-1.726 2.438v1.044C.864 28.728 0 29.86 0 31.252 0 38.652 24.698 39 24.957 39 30.052 39 50 36.998 50 31.252c0-1.393-.95-2.524-2.677-3.308zM30.915 4.092c1.555.435 2.937 1.044 4.232 1.74-.777.958-2.59 3.831-4.059 9.49-.086.435.173.87.518.957h.173a.83.83 0 00.777-.61c1.468-5.658 3.368-8.357 3.886-9.053 4.922 3.57 7.6 9.663 7.6 17.585v.087h-11.4V24.2c0-3.047-1.727-5.659-4.317-6.964 0-6.268 1.381-10.882 2.418-13.32.086.087.086.175.172.175zm-5.958-2.525c2.763 0 4.231.261 4.922.435-.95 1.915-3.022 7.139-3.109 14.8a6.525 6.525 0 00-1.813-.262c-.605 0-1.21.087-1.814.261-.086-7.747-2.159-12.884-3.108-14.799.69-.174 2.158-.435 4.922-.435zM13.385 6.79c.605.784 2.59 3.57 3.973 9.054a.83.83 0 00.777.61h.172a.697.697 0 00.519-.959c-1.382-5.57-3.282-8.53-4.146-9.575 1.382-.784 2.85-1.48 4.491-1.916.95 2.438 2.418 7.052 2.418 13.32-2.59 1.218-4.318 3.917-4.318 6.964v.087H5.872v-.087c0-7.835 2.677-13.929 7.513-17.498zM4.145 26.9c0-.523.432-.958.864-.958h13.04a.777.777 0 00.777-.784v-.87c0-3.395 2.763-6.18 6.13-6.18 3.369 0 6.132 2.785 6.132 6.18v.87c0 .436.345.784.777.784h13.04c.518 0 .864.435.864.958v3.134c-.95.348-4.923 1.305-20.467 1.305-15.717 0-20.12-.957-21.157-1.305V26.9zm20.812 10.533c-9.758 0-23.403-2.35-23.403-6.18 0-.262 0-.871 1.037-1.568v.784c0 .174.086.435.259.522.432.435 3.454 1.915 22.452 1.915 13.299 0 21.071-.696 21.935-2.002.086-.087.086-.261.086-.435v-.784c1.123.697 1.123 1.306 1.123 1.567 0 3.221-14.68 6.181-23.49 6.181z" fill="#000"/></svg><svg fill="none" viewBox="0 0 24 24" id="lang" xmlns="http://www.w3.org/2000/svg"><path d="M12 22c5.523 0 10-4.477 10-10S17.523 2 12 2 2 6.477 2 12s4.477 10 10 10z" stroke="#fff" stroke-width="1.5" stroke-linecap="round" stroke-linejoin="round"/><path d="M8 3h1a28.424 28.424 0 000 18H8M15 3a28.424 28.424 0 010 18" stroke="#fff" stroke-width="1.5" stroke-linecap="round" stroke-linejoin="round"/><path d="M3 16v-1a28.424 28.424 0 0018 0v1M3 9a28.424 28.424 0 0118 0" stroke="#fff" stroke-width="1.5" stroke-linecap="round" stroke-linejoin="round"/></svg><svg fill="none" viewBox="0 0 24 27" id="logo" xmlns="http://www.w3.org/2000/svg"><path d="M17.443 0h-4.197L.262 13.5 13.246 27h4.197L4.459 13.5 17.443 0z" fill="#fff"/><path d="M24 0h-4.197L6.82 13.5 19.803 27H24L11.016 13.5 24 0zM0 27h11.148L0 15.695V27zM11.148 0H0v11.305L11.148 0z" fill="#fff"/></svg><svg fill="none" viewBox="0 0 40 21" id="md" xmlns="http://www.w3.org/2000/svg"><g clip-path="url(#amclip0_195_65)" fill="#000"><path d="M32.075 8.776c1.465 0 2.752.77 3.49 1.93V5.778a7.8 7.8 0 00-3.49-.821 7.863 7.863 0 00-5.55 2.29 8.855 8.855 0 011.855 3.801 4.143 4.143 0 013.695-2.272z"/><path d="M36.226 3.85v9.128c0 2.321-1.858 4.202-4.15 4.202-2.294 0-4.152-1.901-4.152-4.222 0-1.977-.7-3.799-1.86-5.213C24.61 5.969 22.432 4.833 20 4.833c-.222 0-.442.01-.66.029-2.149.182-4.056 1.241-5.377 2.826-1.454-1.747-3.62-2.855-6.038-2.855C3.554 4.833 0 8.459 0 12.916v4.235C0 19.277 1.69 21 3.774 21v-8.084c0-2.338 1.858-4.234 4.15-4.234 2.294 0 4.152 1.896 4.152 4.234v4.235c0 2.126 1.689 3.849 3.773 3.849v-8.084c0-2.109 1.512-3.858 3.49-4.18.216-.035.437-.054.661-.054 2.293 0 4.151 1.937 4.151 4.275 0 4.424 3.555 8.043 7.924 8.043C36.445 21 40 17.401 40 12.978V0c-2.083 0-3.773 1.723-3.773 3.85z"/></g><defs><clipPath id="amclip0_195_65"><path fill="#fff" d="M0 0h40v21H0z"/></clipPath></defs></svg><svg fill="none" viewBox="0 0 24 24" id="message" xmlns="http://www.w3.org/2000/svg"><path d="M8.5 19H8c-4 0-6-1-6-6V8c0-4 2-6 6-6h8c4 0 6 2 6 6v5c0 4-2 6-6 6h-.5c-.31 0-.61.15-.8.4l-1.5 2c-.66.88-1.74.88-2.4 0l-1.5-2c-.16-.22-.53-.4-.8-.4z" stroke="#656565" stroke-width="1.5" stroke-miterlimit="10" stroke-linecap="round" stroke-linejoin="round"/><path d="M15.996 11h.01M11.995 11h.01M7.995 11h.008" stroke="#656565" stroke-width="2" stroke-linecap="round" stroke-linejoin="round"/></svg><svg fill="none" viewBox="0 0 28 28" id="persent" xmlns="http://www.w3.org/2000/svg"><path d="M10.203.67a1.378 1.378 0 00-1.305.728l-1.71 3.227-3.597.63a1.376 1.376 0 00-1.125 1.55l.51 3.614-2.539 2.623a1.378 1.378 0 000 1.916l2.54 2.625-.51 3.615a1.377 1.377 0 001.124 1.55l3.596.63 1.711 3.224a1.38 1.38 0 001.823.593L14 25.591l3.281 1.602a1.376 1.376 0 001.82-.591l1.712-3.224 3.596-.63a1.38 1.38 0 001.128-1.553l-.511-3.614 2.54-2.623a1.383 1.383 0 00-.003-1.916l-2.54-2.625.51-3.615a1.379 1.379 0 00-1.127-1.55l-3.596-.63-1.711-3.224a1.374 1.374 0 00-1.818-.59L14 2.407l-3.281-1.6a1.363 1.363 0 00-.516-.139zM10 7.332a2.666 2.666 0 11.001 5.332A2.666 2.666 0 0110 7.333zm7.2.735l1.6 1.198-8 10.666-1.6-1.198 8-10.666zm-7.2.599a1.333 1.333 0 100 2.666 1.333 1.333 0 000-2.666zm8 6.666a2.666 2.666 0 110 5.334 2.666 2.666 0 110-5.334zm0 1.334a1.333 1.333 0 100 2.666 1.333 1.333 0 000-2.666z" fill="#fff"/></svg><svg fill="none" viewBox="0 0 78 78" id="play" xmlns="http://www.w3.org/2000/svg"><path d="M54.344 37.656L33.234 23.22c-.656-.485-2.406-.485-2.547 1.344v28.875a1.62 1.62 0 002.547 1.343l21.11-14.437c.547-.328 1.297-1.672 0-2.688zM33.954 50.36V27.641L50.53 39 33.953 50.358z" fill="#fff"/><path d="M39 .719C17.89.719.719 17.89.719 39 .719 60.11 17.89 77.281 39 77.281c21.11 0 38.281-17.172 38.281-38.281C77.281 17.89 60.11.719 39 .719zm0 73.297C19.687 74.016 3.984 58.312 3.984 39 3.984 19.687 19.688 3.984 39 3.984c19.313 0 35.016 15.704 35.016 35.016 0 19.313-15.704 35.016-35.016 35.016z" fill="#fff"/></svg><svg fill="none" viewBox="0 0 22 22" id="tel" xmlns="http://www.w3.org/2000/svg"><path d="M1.03 17.33c0 .36.08.73.25 1.09.17.36.39.7.68 1.02.49.54 1.03.93 1.64 1.18.6.25 1.25.38 1.95.38 1.02 0 2.11-.24 3.26-.73s2.3-1.15 3.44-1.98a28.75 28.75 0 003.28-2.8c1.03-1.04 1.96-2.13 2.79-3.27.82-1.14 1.48-2.28 1.96-3.41.48-1.14.72-2.23.72-3.27 0-.68-.12-1.33-.36-1.93-.24-.61-.62-1.17-1.15-1.67-.64-.63-1.34-.94-2.08-.94-.28 0-.56.06-.81.18-.26.12-.49.3-.67.56l-2.32 3.27c-.18.25-.31.48-.4.7-.09.21-.14.42-.14.61 0 .24.07.48.21.71.13.23.32.47.56.71l.76.79c.11.11.16.24.16.4 0 .08-.01.15-.03.23-.03.08-.06.14-.08.2-.18.33-.49.76-.93 1.28-.45.52-.93 1.05-1.45 1.58-.54.53-1.06 1.02-1.59 1.47-.52.44-.95.74-1.29.92-.05.02-.11.05-.18.08a.69.69 0 01-.25.04.55.55 0 01-.41-.17l-.76-.75c-.25-.25-.49-.44-.72-.56-.23-.14-.46-.21-.71-.21-.19 0-.39.04-.61.13-.22.09-.45.22-.7.39l-3.31 2.35c-.26.18-.44.39-.55.64-.1.25-.16.5-.16.78z" stroke="#fff" stroke-width="1.5" stroke-miterlimit="10"/><path d="M4.5 8c0-.6.47-1.52 1.17-2.27C6.31 5.04 7.16 4.5 8 4.5M1 8c0-3.87 3.13-7 7-7" stroke="#fff" stroke-width="1.5" stroke-linecap="round" stroke-linejoin="round"/></svg><svg fill="none" viewBox="0 0 32 32" id="telegram" xmlns="http://www.w3.org/2000/svg"><path fill-rule="evenodd" clip-rule="evenodd" d="M16 32C7.163 32 0 24.837 0 16S7.163 0 16 0s16 7.163 16 16-7.163 16-16 16zm.692-19.993c-1.433.596-4.297 1.83-8.592 3.701-.698.278-1.063.549-1.096.814-.056.449.505.625 1.27.866.104.032.212.066.322.102.752.245 1.764.53 2.29.542.477.01 1.01-.186 1.598-.59 4.013-2.709 6.084-4.078 6.214-4.108.092-.02.22-.047.305.03.087.076.078.221.069.26-.056.237-2.26 2.287-3.4 3.347-.356.33-.608.565-.66.619-.115.12-.233.233-.346.342-.699.674-1.223 1.179.029 2.004.602.396 1.083.724 1.563 1.051.525.358 1.048.714 1.725 1.158.172.113.337.23.497.344.61.436 1.16.826 1.837.764.393-.036.8-.406 1.007-1.51.488-2.61 1.447-8.263 1.669-10.592a2.602 2.602 0 00-.025-.58.621.621 0 00-.21-.4c-.176-.143-.448-.173-.57-.17-.554.009-1.405.305-5.496 2.006z" fill="#000"/></svg><svg fill="none" viewBox="0 0 64 64" id="turnkey-work1" xmlns="http://www.w3.org/2000/svg"><circle cx="32" cy="32" r="32" fill="#C94B23"/><path d="M52.59 27.905l-5.095-2.629 5.094-2.63c.247-.163.411-.328.411-.657 0-.328-.164-.492-.41-.657l-19.72-10.27c-.247-.082-.493-.082-.658 0l-19.719 10.27c-.247.165-.41.329-.41.657 0 .33.163.494.41.658l5.094 2.63-5.094 2.628c-.247.165-.41.329-.41.658 0 .164.081.328.163.41h-.164v6.163c0 .246.164.493.329.657l4.93 2.794-4.93 2.547c-.247.164-.411.328-.411.657s.164.493.41.657l19.72 10.27c.082.083.247.083.329.083.082 0 .246 0 .329-.082l19.719-10.27c.247-.165.41-.33.41-.658 0-.329-.163-.493-.41-.657l-4.93-2.547 4.93-2.794c.247-.164.329-.329.329-.657v-6.163h-.165a.627.627 0 00.165-.41c.164-.247 0-.493-.247-.658zM14.382 21.99l18.158-9.448L50.7 21.989l-18.158 9.45-18.158-9.45zm2.629 14.708l-3.45-1.972v-4.93l3.532 1.808v5.094h-.082zm33.687 5.012l-18.158 9.449-18.158-9.45 4.519-2.382 13.31 7.477c.083.082.247.082.33.082.081 0 .246 0 .328-.082l13.31-7.477 4.52 2.383zm-32.208-4.19v-5.177l3.533 1.808v5.34l-3.533-1.971zm4.93 2.711v-5.34l3.533 1.807v5.505L23.42 40.23zm13.475 2.711l-3.698 2.054v-5.751l3.533-1.808v5.505h.165zm-5.094 2.054l-3.616-2.054h.165v-5.505l3.533 1.808v5.752h-.082zm6.408-2.793v-5.505l3.533-1.808v5.341l-3.533 1.972zm4.93-2.712v-5.34l3.533-1.808v5.177L43.14 39.49zm-10.599-1.479l-18.158-9.448 4.765-2.465 13.064 6.82c.083.081.247.081.33.081.081 0 .246 0 .328-.082l13.064-6.82 4.765 2.466-18.158 9.448zm18.98-3.286l-3.533 1.972v-5.094l3.533-1.808v4.93z" fill="#fff"/></svg><svg fill="none" viewBox="0 0 64 64" id="turnkey-work2" xmlns="http://www.w3.org/2000/svg"><circle cx="32" cy="32" r="32" fill="#C94B23"/><path d="M33.66 44.95v-3.59H29.7v3.56l-.91-.21C22.54 43.31 18 37.63 18 31.21s4.54-12.09 10.79-13.5l.91-.21v4.04h3.96v-4.07l.9.18c6.43 1.29 11.1 6.99 11.1 13.56s-4.67 12.27-11.1 13.56l-.9.18zm-5.46-5.09h6.96v3.23c5.26-1.47 8.99-6.33 8.99-11.87 0-5.54-3.73-10.4-8.99-11.87v3.71H28.2v-3.62c-5.1 1.57-8.71 6.39-8.71 11.79 0 5.4 3.61 10.22 8.71 11.79V39.86z" fill="#fff"/><path d="M25.35 34.66a3.44 3.44 0 110-6.88 3.44 3.44 0 010 6.88zm0-5.39c-1.07 0-1.94.87-1.94 1.94 0 1.07.87 1.94 1.94 1.94 1.07 0 1.94-.87 1.94-1.94 0-1.07-.87-1.94-1.94-1.94zM38.35 34.66a3.44 3.44 0 110-6.88 3.44 3.44 0 010 6.88zm0-5.39c-1.07 0-1.94.87-1.94 1.94 0 1.07.87 1.94 1.94 1.94 1.07 0 1.94-.87 1.94-1.94 0-1.07-.87-1.94-1.94-1.94z" fill="#fff"/><path d="M45.71 49.79H17.75c-2.62 0-4.75-2.13-4.75-4.75V16.75c0-2.62 2.13-4.75 4.75-4.75h27.96c2.62 0 4.75 2.13 4.75 4.75v28.29c0 2.62-2.13 4.75-4.75 4.75zM17.75 13.5c-1.79 0-3.25 1.46-3.25 3.25v28.29c0 1.79 1.46 3.25 3.25 3.25h27.96c1.79 0 3.25-1.46 3.25-3.25V16.75c0-1.79-1.46-3.25-3.25-3.25H17.75z" fill="#fff"/></svg><svg fill="none" viewBox="0 0 64 64" id="turnkey-work3" xmlns="http://www.w3.org/2000/svg"><circle cx="32" cy="32" r="32" fill="#C94B23"/><path d="M23.69 51.81c-.2 0-.4-.08-.55-.23a.79.79 0 01-.01-1.12c2.13-2.19 3.19-4.34 3.16-6.39-.04-2.29-1.4-4.01-2.83-5.83-1.57-2-3.2-4.06-3.1-6.98.05-1.43.79-2.85 1.45-4.1.47-.9.96-1.84.96-2.42 0-.44.36-.79.79-.79.43 0 .79.36.79.79 0 .97-.56 2.03-1.14 3.15-.6 1.16-1.23 2.35-1.27 3.42-.08 2.33 1.3 4.08 2.76 5.94 1.54 1.95 3.12 3.96 3.17 6.78.05 2.49-1.17 5.03-3.61 7.53-.16.16-.36.24-.57.24v.01z" fill="#fff"/><path d="M27.67 25.44l-4.13-5.35-4.12 5.35h8.25zM32.76 51.81c-.2 0-.4-.08-.55-.23a.79.79 0 01-.01-1.12c2.13-2.19 3.19-4.34 3.16-6.39-.04-2.29-1.4-4.01-2.83-5.83-1.58-2-3.21-4.06-3.1-6.98.05-1.43.79-2.85 1.45-4.1.47-.9.96-1.84.96-2.42 0-.44.36-.79.79-.79.43 0 .79.36.79.79 0 .97-.56 2.03-1.14 3.15-.6 1.15-1.23 2.35-1.26 3.42-.08 2.33 1.3 4.08 2.76 5.94 1.54 1.95 3.12 3.96 3.17 6.78.04 2.49-1.17 5.03-3.61 7.53-.16.16-.36.24-.57.24l-.01.01z" fill="#fff"/><path d="M36.74 25.44l-4.13-5.35-4.12 5.35h8.25zM41.98 51.81c-.2 0-.4-.08-.55-.23a.79.79 0 01-.01-1.12c2.13-2.19 3.19-4.34 3.16-6.39-.04-2.29-1.4-4.01-2.83-5.83-1.58-2-3.21-4.06-3.1-6.98.05-1.43.79-2.85 1.45-4.1.47-.9.96-1.84.96-2.42 0-.44.36-.79.79-.79.43 0 .79.36.79.79 0 .97-.56 2.03-1.14 3.15-.6 1.15-1.23 2.35-1.26 3.42-.08 2.33 1.3 4.08 2.76 5.94 1.53 1.95 3.12 3.96 3.17 6.78.05 2.49-1.17 5.03-3.61 7.53-.16.16-.36.24-.57.24l-.01.01z" fill="#fff"/><path d="M45.96 25.44l-4.12-5.35-4.13 5.35h8.25zM47.32 44.34H16.09a6.09 6.09 0 01-6.08-6.08v-8.58c0-.44.36-.79.79-.79.43 0 .79.36.79.79v8.58c0 2.48 2.02 4.49 4.49 4.49h31.23c2.48 0 4.49-2.02 4.49-4.49v-8.58c0-.44.36-.79.79-.79.43 0 .79.36.79.79v8.58a6.09 6.09 0 01-6.08 6.08h.02zM52.6 27.26c-.44 0-.79-.36-.79-.79v-5.39c0-2.48-2.02-4.49-4.49-4.49h-.53c-.44 0-.79-.36-.79-.79 0-.43.36-.79.79-.79h.53a6.09 6.09 0 016.08 6.08v5.39c0 .44-.36.79-.79.79l-.01-.01zm-41.81 0c-.44 0-.79-.36-.79-.79v-5.39A6.09 6.09 0 0116.08 15h2.16c.44 0 .79.36.79.79 0 .43-.36.79-.79.79h-2.16c-2.48 0-4.49 2.02-4.49 4.49v5.39c0 .44-.36.79-.79.79l-.01.01zm29.65-10.68H24.58c-.44 0-.79-.36-.79-.79 0-.43.36-.79.79-.79h15.86c.44 0 .79.36.79.79 0 .43-.36.79-.79.79z" fill="#fff"/></svg><svg fill="none" viewBox="0 0 64 64" id="turnkey-work4" xmlns="http://www.w3.org/2000/svg"><circle cx="32" cy="32" r="32" fill="#C94B23"/><path d="M32.4 44.34a.692.692 0 01-.69-.7V31.23c0-.26.15-.5.38-.62l10.71-5.47c.22-.11.47-.1.68.03.21.13.33.35.33.6v12.41c0 .26-.15.5-.38.62l-10.71 5.47c-.1.05-.21.08-.32.08v-.01zm.7-12.69V42.5l9.31-4.76V26.89l-9.31 4.76z" fill="#fff"/><path d="M32.4 44.34c-.11 0-.22-.03-.32-.08l-10.71-5.47a.705.705 0 01-.38-.62V25.76c0-.24.13-.47.33-.6.21-.13.47-.14.68-.03l10.71 5.47c.23.12.38.36.38.62v12.41c0 .24-.13.47-.33.6-.11.07-.24.1-.36.1v.01zm-10.01-6.6l9.31 4.76V31.65l-9.31-4.76v10.85z" fill="#fff"/><path d="M32.4 31.92c-.11 0-.22-.03-.32-.08l-10.71-5.47a.694.694 0 01-.38-.6c0-.25.12-.49.34-.62l10.71-6.47c.22-.13.5-.13.72 0l10.71 6.47c.22.13.35.37.34.62 0 .25-.15.48-.38.6l-10.71 5.47c-.1.05-.21.08-.32.08zm-9.27-6.22l9.27 4.74 9.27-4.74-9.27-5.61-9.27 5.61zM10.7 45.31a.68.68 0 01-.6-.35.713.713 0 01.25-.96l10.99-6.44c.33-.19.76-.08.96.25.19.33.08.76-.25.96l-10.99 6.44c-.11.06-.23.1-.35.1h-.01zM53.19 44.29a.8.8 0 01-.33-.08l-10.09-5.43a.694.694 0 01-.28-.95c.18-.34.61-.47.95-.28l10.09 5.43c.34.18.47.61.28.95a.72.72 0 01-.62.37v-.01z" fill="#fff"/><path d="M32.4 19.98c-.39 0-.7-.31-.7-.7V8.7c0-.39.31-.7.7-.7.39 0 .7.31.7.7v10.58c0 .39-.31.7-.7.7z" fill="#fff"/><path d="M34.61 11.62c-.18 0-.36-.07-.49-.2l-1.73-1.73-1.73 1.73c-.27.27-.71.27-.99 0a.697.697 0 010-.99l2.22-2.22c.27-.27.71-.27.99 0l2.22 2.22c.27.27.27.71 0 .99-.14.14-.31.2-.49.2zM13.75 46.05c-.06 0-.11 0-.17-.02l-3.05-.76a.704.704 0 01-.51-.85l.76-3.05c.09-.37.47-.6.85-.51.37.09.6.47.51.85l-.59 2.37 2.37.59c.37.09.6.47.51.85-.08.32-.36.53-.68.53zM50.15 45.08c-.31 0-.6-.21-.68-.53-.09-.37.14-.75.51-.84l2.37-.58-.58-2.37c-.09-.37.14-.75.51-.84.37-.09.75.14.84.51l.75 3.05c.04.18.01.37-.08.53a.73.73 0 01-.43.32l-3.05.75c-.06.01-.11.02-.17.02l.01-.02zM32.42 51.07c-3.33 0-6.58-.86-9.43-2.5a.701.701 0 01-.26-.95c.19-.33.62-.45.95-.26 2.64 1.51 5.65 2.31 8.71 2.31 3.3-.13 6.29-.92 8.84-2.35.34-.19.76-.07.95.27.19.34.07.76-.27.95-2.75 1.54-5.95 2.38-9.5 2.53h.01zM14.18 32.89c-.39 0-.7-.27-.7-.66h.7l-.7-.05c0-6.75 3.62-13.03 9.45-16.4.33-.2.76-.08.95.25.19.33.08.76-.25.95-5.4 3.13-8.75 8.94-8.75 15.17 0 .39-.31.74-.7.74zm36.34-.08c-.38 0-.7-.31-.7-.7-.01-6.52-3.25-12.19-8.65-15.17a.694.694 0 01-.27-.95c.19-.34.61-.46.95-.27 5.85 3.23 9.35 9.36 9.37 16.39 0 .39-.31.7-.7.7z" fill="#fff"/></svg><svg fill="none" viewBox="0 0 64 64" id="turnkey-work5" xmlns="http://www.w3.org/2000/svg"><circle cx="32" cy="32" r="32" fill="#C94B23"/><path d="M13.55 34.18c-1.53 0-2.78-1.25-2.78-2.78h1.5c0 .71.57 1.28 1.28 1.28.71 0 1.28-.57 1.28-1.28 0-.71-.57-1.28-1.28-1.28v-1.5c1.53 0 2.78 1.25 2.78 2.78 0 1.53-1.25 2.78-2.78 2.78z" fill="#fff"/><path d="M14.3 23.27h-1.5v6.11h1.5v-6.11zM45.03 52.55h-1.5V22.52h5.77v-5.67h-4.69l-.07 1.72-1.5-.06.13-3.16h7.63v8.67h-5.77v28.53z" fill="#fff"/><path d="M44.27 22.52h-5.22v1.5h5.22v-1.5z" fill="#fff"/><path d="M39.8 52.55h-1.5V24.02H8l5.2-6.23h22.52v1.5H13.9l-2.69 3.23H39.8v30.03z" fill="#fff"/><path d="M39.8 25.63l-4.47-6.34H21.9L39.06 9l10.61 6.46-.78 1.28-9.08-5.53v14.42h-.01zm-12.49-7.84h8.79l2.2 3.11v-9.7l-10.99 6.59z" fill="#fff"/><path d="M39.58 52.73l-1.06-1.06 4.77-4.77-5.4-5.4 5.44-5.43-5.32-5.32 5.09-5.09-1.77-1.76 1.07-1.06 2.82 2.82-5.09 5.09 5.32 5.32-5.43 5.43 5.39 5.4-5.83 5.83zM18.97 52.55h-1.5V36.12h17.87v1.5H18.97v14.93z" fill="#fff"/><path d="M22.3 31.41h-1.5v5.46h1.5v-5.46zM27.8 31.41h-1.5v5.46h1.5v-5.46zM33.3 31.41h-1.5v5.46h1.5v-5.46zM35.34 45.66H20.8v-6h14.54v1.5H22.3v3h13.04v1.5zM35.34 52.95H20.8v-6h14.54v1.5H22.3v3h13.04v1.5z" fill="#fff"/><path d="M26.32 44.92c-.09-4.73-.06-4.76.21-5.04l.54-.23v.75l.73.14c-.03.29-.02 2.44.02 4.35l-1.5.03zM27.82 47.7h-1.5v4.5h1.5v-4.5zM31.82 44.92c-.09-4.73-.06-4.76.21-5.04l.54-.23v.75l.73.14c-.03.29-.02 2.44.02 4.35l-1.5.03zM33.32 47.7h-1.5v4.5h1.5v-4.5z" fill="#fff"/></svg><svg fill="none" viewBox="0 0 64 64" id="turnkey-work6" xmlns="http://www.w3.org/2000/svg"><circle cx="32" cy="32" r="32" fill="#C94B23"/><path d="M15.21 41.69l.63 1.44c.54-.27 1.08-.45 1.62-.63l-.54-1.44c-.54.18-1.17.36-1.71.63zm-3.24-21.51l.9 1.35c.45-.36.99-.63 1.53-.9l-.81-1.35c-.63.18-1.17.54-1.62.9zm0 11.7l.9 1.35c.45-.36.99-.63 1.53-.9l-.81-1.35c-.63.18-1.17.54-1.62.9zm3.24-1.89l.63 1.44c.54-.27 1.08-.45 1.62-.63l-.54-1.44c-.54.18-1.17.36-1.71.63zM9 45.83L10.08 47s.45-.45 1.35-1.08l-.99-1.26c-.9.63-1.44 1.17-1.44 1.17zm6.21-27.54l.63 1.44c.54-.27 1.08-.45 1.62-.63l-.54-1.44c-.54.18-1.17.36-1.71.63zM9 34.13l1.08 1.17s.45-.45 1.35-1.08l-.99-1.26c-.9.63-1.44 1.17-1.44 1.17zm0-11.7l1.08 1.17s.45-.45 1.35-1.08l-.99-1.26c-.9.63-1.44 1.17-1.44 1.17zm2.97 21.15l.9 1.35c.45-.36.99-.63 1.53-.9l-.81-1.35c-.63.18-1.17.54-1.62.9zm13.95-25.11c.54.09 1.17.18 1.71.27l.36-1.53c-.63-.09-1.17-.27-1.8-.27l-.27 1.53zm-3.42-.27c.63 0 1.17 0 1.71.09l.09-1.53c-.63 0-1.17-.09-1.89-.09l.09 1.53zm3.42 11.97c.54.09 1.17.18 1.71.27l.36-1.53c-.63-.09-1.17-.27-1.8-.27l-.27 1.53zm0 11.7c.54.09 1.17.18 1.71.27l.36-1.53c-.63-.09-1.17-.27-1.8-.27l-.27 1.53zm26.55-7.65l2.16-6.12c.09-.27.09-.54-.09-.72-.18-.18-.36-.36-.63-.36l-6.3.18v1.53l4.14-.09c-1.8 1.26-5.94 3.96-9.81 3.96-2.79 0-4.77-.45-6.48-1.08v-9.99c1.71.54 3.78.99 6.48.99 3.96 0 8.1-2.34 10.17-3.87l-1.08 3.33 1.53.54 2.16-6.12c.09-.27.09-.54-.09-.72-.18-.18-.36-.36-.63-.36l-6.3.18v1.53l4.14-.09c-1.8 1.26-5.94 3.96-9.81 3.96-2.79 0-4.77-.45-6.48-1.08v-7.2c0-.9-.72-1.62-1.62-1.62h-2.7c-.9 0-1.62.72-1.62 1.62v5.49l-.27 1.08c.09 0 .18.09.27.09v10.53l-.27 1.08c.09 0 .18.09.27.09v10.53l-.27 1.08c.09 0 .18.09.27.09v8.64c0 .9.72 1.62 1.62 1.62h2.7c.9 0 1.62-.72 1.62-1.62v-6.39c1.71.54 3.78.99 6.48.99 3.96 0 8.1-2.34 10.17-3.87l-1.17 3.33 1.53.54 2.16-6.12c.09-.27.09-.54-.09-.72-.18-.18-.36-.36-.63-.36l-6.3.18v1.53l4.14-.09c-1.8 1.26-5.94 3.96-9.81 3.96-2.79 0-4.77-.45-6.48-1.08v-9.99c1.71.54 3.78.99 6.48.99 3.96 0 8.1-2.34 10.17-3.87l-1.17 3.33 1.44.54zm-18.54 17.1h-2.7v-38.7h2.7v38.7zM18.72 40.43l.36 1.53c.54-.18 1.17-.27 1.71-.27l-.18-1.53c-.63 0-1.26.18-1.89.27zm0-11.7l.36 1.53c.54-.18 1.17-.27 1.71-.27l-.18-1.53c-.63 0-1.26.18-1.89.27zm3.78 1.17c.63 0 1.17 0 1.71.09l.09-1.53c-.63 0-1.17-.09-1.89-.09l.09 1.53zm-3.78-12.87l.36 1.53c.54-.18 1.17-.27 1.71-.27l-.18-1.53c-.63 0-1.26.18-1.89.27zM22.5 41.6c.63 0 1.17 0 1.71.09l.09-1.53c-.63 0-1.17-.09-1.89-.09l.09 1.53z" fill="#fff"/></svg><svg fill="none" viewBox="0 0 64 64" id="turnkey-work7" xmlns="http://www.w3.org/2000/svg"><circle cx="32" cy="32" r="32" fill="#C94B23"/><path d="M25.32 44.85a.74.74 0 01-.62-.33l-7.78-11.38a.744.744 0 01.2-1.04c.34-.24.81-.15 1.04.2l7.78 11.38c.23.34.15.81-.2 1.04a.74.74 0 01-.42.13zM48.53 50.84H23.51c-.32 0-.61-.21-.71-.51-.1-.3 0-.64.26-.84l3.83-2.89c2-1.5 2.91-2.18 2.91-4.5v-.76c0-.41.34-.75.75-.75h17.99c.41 0 .75.34.75.75v8.74c0 .41-.34.75-.75.75l-.01.01zm-22.78-1.5h22.03V42.1H31.29c0 3.07-1.47 4.18-3.51 5.71l-2.04 1.54.01-.01z" fill="#fff"/><path d="M45.07 42.1H30.54c-.41 0-.75-.34-.75-.75V37.5c0-.41.34-.75.75-.75h14.53c.41 0 .75.34.75.75v3.85c0 .41-.34.75-.75.75zm-13.78-1.5h13.03v-2.35H31.29v2.35zM27.53 30.6c-.05 0-.1 0-.15-.02a.74.74 0 01-.58-.89l.49-2.39-5.28-4.56a.756.756 0 01-.08-1.06c.27-.31.75-.35 1.06-.08l5.61 4.85c.21.18.3.45.24.72l-.58 2.82c-.07.35-.39.6-.73.6v.01z" fill="#fff"/><path d="M43.01 38.25c-.35 0-.66-.24-.73-.6l-2.16-10.48c-.05-.27.04-.54.24-.72l5.35-4.62V12.5h-3.28v4.04c0 .41-.34.75-.75.75H37c-.41 0-.75-.34-.75-.75V12.5h-3.21v4.04c0 .41-.34.75-.75.75h-4.68c-.41 0-.75-.34-.75-.75V12.5h-3.61v8.92h11.23c.41 0 .75.34.75.75s-.34.75-.75.75H22.5c-.41 0-.75-.34-.75-.75V11.75c0-.41.34-.75.75-.75h5.11c.41 0 .75.34.75.75v4.04h3.18v-4.04c0-.41.34-.75.75-.75H37c.41 0 .75.34.75.75v4.04h3.18v-4.04c0-.41.34-.75.75-.75h4.78c.41 0 .75.34.75.75v10.42c0 .22-.09.42-.26.57l-5.28 4.56 2.07 10.05c.08.41-.18.8-.58.89-.05.01-.1.02-.15.02v-.01zM20.65 53c-.16 0-.32-.05-.45-.15l-6.69-5.04c-2.04-1.53-3.51-2.63-3.51-5.7V30.48c0-.36.26-.67.62-.74l2.69-.49c1.54-.28 2.99-.82 4.33-1.61l2.64-1.55c.22-.13.5-.14.73-.01l3.34 1.8c1.05.56 2.18.98 3.35 1.24l.11.03.16.04 2.74.56c.35.07.6.38.6.73v11.63c0 3.06-1.47 4.17-3.51 5.7l-6.68 5.04c-.13.1-.29.15-.45.15h-.02zM11.5 31.11v11.01c0 2.31.91 3 2.91 4.5l6.24 4.7 6.23-4.7c2-1.5 2.91-2.18 2.91-4.5V31.1l-2.34-.49-.11-.02c-1.28-.29-2.54-.75-3.71-1.38l-2.97-1.6-2.27 1.33c-1.48.88-3.11 1.48-4.82 1.79l-2.08.38h.01z" fill="#fff"/><path d="M20.91 44.65a.74.74 0 01-.62-.33l-4.42-6.47a.744.744 0 01.2-1.04c.34-.24.81-.15 1.04.2l4.42 6.47c.23.34.15.81-.2 1.04a.74.74 0 01-.42.13z" fill="#fff"/></svg><svg fill="none" viewBox="0 0 32 32" id="vk" xmlns="http://www.w3.org/2000/svg"><path d="M10.699 12.87c.085 4.16 2.165 6.655 5.813 6.655h.213v-2.378c1.339.133 2.352 1.114 2.758 2.378h1.893a5.265 5.265 0 00-2.736-3.338 5.08 5.08 0 002.336-3.323h-1.717c-.374 1.323-1.483 2.523-2.534 2.635v-2.63h-1.722v4.608c-1.067-.266-2.411-1.557-2.47-4.608H10.7z" fill="#000"/><path fill-rule="evenodd" clip-rule="evenodd" d="M16 0c8.837 0 16 7.163 16 16s-7.163 16-16 16S0 24.837 0 16 7.163 0 16 0zM8 15.68c0-3.621 0-5.43 1.12-6.56C10.256 8 12.064 8 15.68 8h.64c3.621 0 5.43 0 6.56 1.12C24 10.256 24 12.064 24 15.68v.64c0 3.621 0 5.43-1.12 6.56C21.744 24 19.936 24 16.32 24h-.64c-3.621 0-5.43 0-6.56-1.12C8 21.744 8 19.936 8 16.32v-.64z" fill="#000"/></svg><svg fill="none" viewBox="0 0 32 32" id="whatsapp" xmlns="http://www.w3.org/2000/svg"><path fill-rule="evenodd" clip-rule="evenodd" d="M12.6 21.7c1 .6 2.2.9 3.4.9 3.7 0 6.6-3 6.6-6.5 0-1.8-.6-3.4-1.9-4.7-1.3-1.2-2.9-1.9-4.7-1.9-3.6 0-6.6 3-6.6 6.6 0 1.2.3 2.4 1 3.5l.2.3-.7 2.4 2.5-.7.2.1zm5.6-4.7c.2 0 1.2.5 1.4.6.031.016.062.029.093.042.167.07.323.136.407.558.1 0 .1.4-.1.9-.1.4-.9.9-1.3.9-.068 0-.133.006-.202.012-.34.03-.786.07-2.198-.512-1.753-.701-2.968-2.4-3.309-2.877-.048-.068-.079-.11-.091-.123-.017-.034-.052-.088-.097-.16-.221-.35-.703-1.11-.703-1.94 0-1 .5-1.5.7-1.7.2-.2.4-.2.5-.2h.4c.1 0 .3 0 .4.3.2.4.6 1.4.6 1.5 0 .033.011.067.022.1.023.067.045.133-.022.2-.05.05-.075.1-.1.15-.025.05-.05.1-.1.15l-.3.3c-.1.1-.2.2-.1.4s.5.9 1.1 1.4c.675.59 1.208.825 1.478.944.05.022.09.04.122.056.2 0 .3 0 .4-.1.05-.1.175-.25.3-.4.125-.15.25-.3.3-.4.1-.2.2-.2.4-.1z" fill="#000"/><path fill-rule="evenodd" clip-rule="evenodd" d="M0 16C0 7.163 7.163 0 16 0s16 7.163 16 16-7.163 16-16 16S0 24.837 0 16zm16-8c2.1 0 4.1.8 5.6 2.3 1.5 1.5 2.4 3.5 2.4 5.6 0 4.4-3.6 8-8 8-1.3 0-2.6-.4-3.8-1L8 24l1.1-4C8.4 18.8 8 17.4 8 16c0-4.4 3.6-8 8-8z" fill="#000"/></svg><svg fill="none" viewBox="0 0 52 55" id="work1" xmlns="http://www.w3.org/2000/svg"><path d="M31.01 15.03c-.53 0-.97-.42-1-.95L29.44 2h-7.73l-.41 12.07c-.02.55-.49 1-1.03.97a1.01 1.01 0 01-.97-1.03L19.74.97c.02-.54.46-.97 1-.97h9.65c.53 0 .97.42 1 .95l.62 13.04c.03.55-.4 1.02-.95 1.05h-.05v-.01zM47.04 23.42h-.05c-.55-.03-.98-.5-.95-1.05.37-7.06-4.51-14.37-10.31-15.83v14.03c0 .55-.45 1-1 1s-1-.45-1-1V5.34c0-.29.12-.56.33-.75.21-.19.5-.28.78-.25 7.36.86 13.65 9.49 13.19 18.12-.03.53-.47.95-1 .95l.01.01zM4.27 23.42a1 1 0 01-1-.95C2.81 13.84 9.1 5.2 16.46 4.35c.28-.03.57.06.78.25.21.19.33.46.33.75v15.23c0 .55-.45 1-1 1s-1-.45-1-1V6.54C9.77 8 4.89 15.3 5.26 22.37a.997.997 0 01-.95 1.05h-.05.01zM25.66 27.99c-4.63 0-17.93-1.62-18.49-1.68a.998.998 0 01.24-1.98c.14.02 13.75 1.67 18.25 1.67s18.11-1.65 18.25-1.67a.994.994 0 011.11.87.987.987 0 01-.87 1.11c-.56.07-13.87 1.68-18.49 1.68z" fill="#1A1A1A"/><path d="M25.66 35.85c-6.38 0-18.27 0-25.43-8.75a.978.978 0 01-.23-.63v-3.35c0-.55.45-1 1-1s1 .45 1 1v2.99c6.06 7.14 15.38 7.75 23.66 7.75s17.59-.6 23.66-7.75v-2.99c0-.55.45-1 1-1s1 .45 1 1v3.35c0 .23-.08.45-.23.63-7.16 8.75-19.05 8.75-25.43 8.75zM25.66 43.08c-2.27 0-4.39-1.05-5.54-2.75a.999.999 0 01.27-1.39.999.999 0 011.39.27c.78 1.15 2.27 1.87 3.88 1.87 1.61 0 3.1-.72 3.88-1.87.31-.46.93-.57 1.39-.26.46.31.57.93.26 1.39-1.15 1.69-3.28 2.75-5.54 2.75l.01-.01z" fill="#1A1A1A"/><path d="M29.42 54.2h-7.41l-.99-5.19c-1.19-.29-2.34-.69-3.45-1.2l-5.05 3.07-5.39-4.54 3.68-4.3c-.54-.85-.98-1.75-1.32-2.7l-6.2-.85v-5.73c0-.55.45-1 1-1s1 .45 1 1v3.98l5.73.78.19.62c.36 1.21.92 2.34 1.67 3.37l.46.64-3.39 3.96 2.75 2.32 4.76-2.9.5.25c1.29.65 2.67 1.13 4.11 1.42l.66.13.93 4.87h4.1l.93-4.89.65-.14c1.41-.3 2.79-.78 4.08-1.44l.5-.25 4.77 2.91 2.75-2.32-3.41-4 .45-.64c.73-1.02 1.27-2.15 1.63-3.34l.18-.62 5.77-.78v-3.98c0-.55.45-1 1-1s1 .45 1 1v5.73l-6.23.85c-.33.93-.75 1.82-1.28 2.66l3.72 4.36-5.38 4.54-5.05-3.08c-1.1.52-2.24.92-3.41 1.21l-1 5.22h-.01z" fill="#1A1A1A"/></svg><svg fill="none" viewBox="0 0 60 54" id="work2" xmlns="http://www.w3.org/2000/svg"><path d="M14.392 18.17c-.31 0-.62-.14-.81-.41l-4.86-6.73 6.19-6.19 6.21 4.49c1.37-.76 2.83-1.37 4.34-1.79L26.672 0h8.75l.62 3.87a1.004 1.004 0 01-1.98.32L33.712 2h-5.35l-1.15 7.15-.64.16c-1.76.44-3.45 1.13-5.01 2.07l-.57.34-5.89-4.26-3.78 3.78 3.86 5.35c.32.45.22 1.07-.22 1.4a.98.98 0 01-.58.19l.01-.01zM50.512 14.31a.96.96 0 01-.58-.19.995.995 0 01-.22-1.4l1.04-1.43-3.78-3.78-5.85 4.23-.57-.34c-1.57-.94-3.26-1.65-5.03-2.09a1 1 0 01.48-1.94c1.75.44 3.43 1.1 5 1.98l6.17-4.46 6.19 6.19-2.03 2.81a1 1 0 01-.81.41l-.01.01z" fill="#1A1A1A"/><path d="M54.022 40.09c-2.24 0-4.3-1.49-4.92-3.76l-3.44-12.66a5.04 5.04 0 01.5-3.87 5.035 5.035 0 013.09-2.38c2.71-.74 5.51.87 6.25 3.58l3.44 12.66a5.04 5.04 0 01-.5 3.87 5.035 5.035 0 01-3.09 2.38c-.44.12-.89.18-1.33.18zm-3.44-20.85c-.27 0-.54.04-.81.11-.8.22-1.46.73-1.87 1.45-.41.72-.52 1.55-.3 2.35l3.44 12.66a3.106 3.106 0 003.8 2.18 3.106 3.106 0 002.18-3.8l-3.44-12.66a3.085 3.085 0 00-2.99-2.28l-.01-.01zM5.092 40.06c-.47 0-.95-.07-1.42-.2-2.7-.78-4.25-3.61-3.47-6.31l3.66-12.6a5.044 5.044 0 012.44-3.04c1.19-.65 2.57-.81 3.88-.43 1.31.38 2.39 1.25 3.04 2.44.66 1.19.81 2.57.43 3.88l-3.66 12.6a5.1 5.1 0 01-4.89 3.67l-.01-.01zm3.66-20.79c-1.34 0-2.58.88-2.97 2.23l-3.66 12.6c-.48 1.64.47 3.36 2.11 3.83 1.64.48 3.36-.47 3.83-2.11l3.66-12.6a3.086 3.086 0 00-2.97-3.95z" fill="#000"/><path d="M44.322 43.96c-.77 0-1.49-.33-2.04-.95-1.79-1.99-3.49-3.85-3.49-3.85a.996.996 0 01.06-1.41.996.996 0 011.41.06s1.71 1.87 3.5 3.86c.27.3.49.3.7.27.99-.17 2.29-1.66 2.68-2.59-.02-1.19-4.99-6.15-7.38-8.54l-.7-.7c-3.45-3.45-5.38-4.22-9.09-4.67-2.4-.3-5.22.54-7.94 2.36-1.45.97-5.44.33-6.03.1-.8-.3-1.24-1.2-1.39-1.57-.39-.95-.41-1.94-.06-2.71.76-1.64 10.91-6.76 13.61-7.16 2.11-.31 3.58.19 6.01 1.01 1.12.38 2.52.85 4.33 1.37 5.34 1.52 7.42 1.36 7.44 1.36.54-.06 1.03.35 1.09.9a.997.997 0 01-.88 1.09c-.24.03-2.48.2-8.2-1.43a84.19 84.19 0 01-4.42-1.4c-2.36-.8-3.44-1.17-5.08-.93-2.49.37-11.11 4.97-12.11 6.08-.18.51.2 1.38.42 1.54.6.21 3.57.43 4.16.07 3.12-2.08 6.42-3.03 9.3-2.68 3.95.48 6.37 1.36 10.26 5.25l.7.69c6.12 6.11 8.56 8.95 7.81 10.73-.56 1.34-2.29 3.47-4.19 3.79-.16.03-.32.04-.47.04l-.01.02z" fill="#000"/><path d="M47.832 39.49c-.51 0-.95-.39-1-.91a.998.998 0 01.91-1.08l2.83-.24a.998.998 0 11.17 1.99l-2.83.24h-.09.01zM39.892 47.29c-2.24 0-3.6-1.82-5.04-3.72-.33-.44-.24-1.07.2-1.4.44-.33 1.07-.24 1.4.2 2.16 2.88 2.88 3.46 4.93 2.54.71-.31.93-.52.64-2.4a.99.99 0 01.83-1.14.996.996 0 011.14.83c.29 1.84.37 3.57-1.8 4.54-.87.39-1.63.56-2.31.56l.01-.01z" fill="#000"/><path d="M35.522 50.58c-1.06 0-2.28-.61-3.81-2.44-.35-.42-.3-1.05.12-1.41.42-.35 1.05-.3 1.41.12 1.91 2.28 2.49 1.87 3.56 1.12.68-.48.68-.52.64-1.58v-.43a.974.974 0 01.96-1.02c.55-.03 1.01.42 1.02.97v.41c.06 1.22.09 2.18-1.45 3.26-.75.53-1.55.99-2.46.99l.01.01zM17.782 23.32h-.11l-4.6-.5a1 1 0 01-.89-1.1c.06-.55.56-.94 1.1-.89l4.6.5a1 1 0 01.89 1.1c-.06.51-.49.89-.99.89zM24.672 53.16c-1.52 0-2.82-.93-3.35-2.23-1.65.31-3.34-.65-4.07-2.23-.25.05-.51.07-.76.07-2.15 0-3.93-1.58-4.25-3.64a3.174 3.174 0 01-2.98-3.16c0-1.68 1.42-3.17 3.17-3.17 1.17 0 2.19.62 2.74 1.57a4.316 4.316 0 015.24 2.29c1.97-.16 3.71 1.4 4.03 3.47 2.06-.14 3.85 1.49 3.85 3.51 0 1.94-1.62 3.52-3.6 3.52h-.02zm-2.6-4.6c.17 0 .34.04.49.13.33.18.52.53.51.91 0 .88.72 1.56 1.6 1.56.88 0 1.6-.68 1.6-1.52s-.72-1.52-1.6-1.52c-.27 0-.54.07-.78.19a.994.994 0 01-1.45-1.05c.02-.14.04-.29.04-.44 0-1.42-1.19-2.53-2.38-2.06a.994.994 0 01-1.35-.74 2.303 2.303 0 00-2.26-1.86c-.48 0-.94.15-1.33.43-.29.21-.67.24-1 .09-.32-.15-.54-.46-.58-.82-.06-.6-.56-1.06-1.16-1.06-.64 0-1.17.52-1.17 1.17 0 .79.84 1.39 1.6 1.08a1.008 1.008 0 011.36 1.08c-.02.11-.03.22-.03.33a2.311 2.311 0 003.29 2.09 1.013 1.013 0 011.42.73c.18 1 .93 1.72 1.78 1.72.3 0 .59-.09.87-.27.17-.11.36-.16.55-.16l-.02-.01z" fill="#000"/><path d="M10.872 41.45c-.38 0-.75-.22-.92-.6-.02-.04-.5-1-2.03-2a1 1 0 01-.29-1.38 1 1 0 011.38-.29c2.08 1.36 2.7 2.73 2.77 2.88.22.51-.02 1.1-.53 1.31-.13.05-.26.08-.39.08h.01zM31.432 52.64c-1.47 0-3.03-.51-4.75-1.53-.47-.28-.63-.9-.35-1.37.28-.47.9-.63 1.37-.35 1.71 1.02 3.16 1.41 4.44 1.19.91-.16 1.68-1.16 1.88-1.5.28-.48.89-.63 1.37-.35.48.28.64.89.35 1.37-.13.22-1.29 2.12-3.27 2.46-.35.06-.7.09-1.05.09l.01-.01z" fill="#000"/></svg><svg fill="none" viewBox="0 0 55 55" id="work3" xmlns="http://www.w3.org/2000/svg"><path d="M27.14 34.85c-4.22 0-7.66-3.43-7.66-7.66 0-1.24.3-2.48.88-3.57.26-.49.86-.68 1.35-.42.49.26.68.86.42 1.35-.43.82-.65 1.7-.65 2.63 0 3.12 2.54 5.66 5.66 5.66s5.66-2.54 5.66-5.66-2.54-5.66-5.66-5.66c-.67 0-1.33.12-1.96.35a.993.993 0 01-1.28-.59.993.993 0 01.59-1.28c.85-.31 1.74-.47 2.65-.47 4.22 0 7.66 3.43 7.66 7.66a7.66 7.66 0 01-7.66 7.66z" fill="#1A1A1A"/><path d="M27.14 41.05c-7.64 0-13.85-6.22-13.85-13.85 0-3.15 1.03-6.11 2.97-8.58a1 1 0 011.4-.17 1 1 0 01.17 1.4 11.766 11.766 0 00-2.54 7.34c0 6.54 5.32 11.85 11.85 11.85 6.53 0 11.85-5.32 11.85-11.85 0-6.53-5.32-11.85-11.85-11.85-1.97 0-3.93.49-5.65 1.43-.49.26-1.09.08-1.36-.4-.26-.49-.08-1.09.4-1.36a13.94 13.94 0 016.6-1.67c7.64 0 13.85 6.22 13.85 13.85s-6.22 13.85-13.85 13.85l.01.01z" fill="#1A1A1A"/><path d="M31.59 54.36h-8.75l-1.21-7.49c-1.53-.43-3-1.03-4.39-1.8l-6.16 4.46-6.19-6.19 4.44-6.14c-.78-1.39-1.4-2.86-1.83-4.4L0 31.59v-8.75l7.48-1.2c.49-1.74 1.21-3.41 2.15-4.97.29-.47.9-.63 1.37-.34.47.28.63.9.34 1.37-.95 1.57-1.65 3.28-2.09 5.06l-.16.64-7.1 1.14v5.35l7.11 1.14.16.64c.45 1.79 1.16 3.49 2.11 5.06l.34.57-4.21 5.82 3.78 3.78 5.84-4.22.57.34c1.58.94 3.28 1.64 5.06 2.08l.64.16 1.14 7.11h5.35l1.15-7.14.64-.16c1.77-.45 3.46-1.15 5.02-2.1l.57-.34 5.86 4.23 3.78-3.78-4.25-5.88.34-.57a18.58 18.58 0 002.06-5.01l.16-.64 7.16-1.15v-5.35l-7.18-1.16-.16-.64c-.44-1.76-1.14-3.44-2.08-4.99l-.34-.57 4.25-5.88-3.78-3.78-5.89 4.26-.57-.34c-1.56-.94-3.25-1.63-5.01-2.07l-.64-.16L29.82 2h-5.35l-.35 2.19a1.004 1.004 0 01-1.98-.32L22.76 0h8.75l1.21 7.54c1.51.43 2.96 1.03 4.34 1.79l6.21-4.49 6.19 6.19-4.48 6.2c.77 1.37 1.37 2.82 1.8 4.32l7.57 1.22v8.75l-7.54 1.21c-.42 1.51-1.02 2.97-1.78 4.34l4.49 6.21-6.19 6.19-6.17-4.46c-1.38.78-2.84 1.39-4.36 1.82l-1.21 7.53z" fill="#1A1A1A"/><path d="M7.67 14.31c-.31 0-.62-.14-.81-.41l-2.03-2.81 6.19-6.19 6.17 4.46c1.57-.88 3.25-1.54 5-1.98a.992.992 0 011.21.73.995.995 0 01-.73 1.21c-1.77.44-3.46 1.14-5.03 2.09l-.57.34-5.85-4.23-3.78 3.78 1.04 1.43a1.007 1.007 0 01-.81 1.59v-.01z" fill="#1A1A1A"/></svg></svg>